<?xml version="1.0" standalone="no"?>
<!DOCTYPE svg PUBLIC "-//W3C//DTD SVG 20010904//EN"
 "http://www.w3.org/TR/2001/REC-SVG-20010904/DTD/svg10.dtd">
<svg version="1.0" xmlns="http://www.w3.org/2000/svg"
 width="171.000000pt" height="152.000000pt" viewBox="0 0 171.000000 152.000000"
 preserveAspectRatio="xMidYMid meet">

<g transform="translate(0.000000,152.000000) scale(0.100000,-0.100000)"
fill="#000000" stroke="none">
<path d="M814 1470 c-50 -20 -108 -115 -148 -244 -4 -13 -11 -16 -24 -11 -141
60 -247 76 -302 48 -71 -37 -85 -116 -38 -221 11 -26 20 -59 19 -75 -1 -20 5
-30 21 -36 21 -8 68 -61 68 -77 0 -3 -31 -40 -70 -81 -92 -98 -134 -183 -128
-254 6 -64 31 -97 94 -129 44 -23 60 -25 169 -24 66 0 132 3 147 7 25 7 27 4
43 -50 84 -288 237 -334 338 -102 13 29 27 67 31 83 8 31 1 32 116 -9 147 -53
240 -42 275 32 31 65 -2 176 -93 311 l-41 59 55 54 c112 110 169 229 144 304
-36 109 -159 149 -376 122 l-60 -8 -13 53 c-31 122 -90 220 -147 244 -38 16
-50 16 -80 4z m66 -10 c21 0 74 -58 100 -111 29 -56 67 -176 59 -182 -2 -2
-47 -17 -99 -33 l-95 -30 -87 51 c-96 55 -92 45 -57 140 40 109 112 186 157
170 8 -3 17 -5 22 -5z m-315 -228 c90 -31 104 -50 53 -73 -49 -21 -70 -70 -63
-144 l5 -60 -47 -32 c-27 -18 -57 -40 -69 -48 -20 -15 -22 -13 -47 24 -15 22
-24 47 -21 55 3 9 -4 21 -19 31 -58 38 -91 191 -51 236 49 56 118 59 259 11z
m308 -165 c97 -66 108 -77 76 -77 -12 0 -48 24 -85 59 -37 35 -93 74 -134 94
-38 19 -67 37 -63 40 8 9 95 -40 206 -116z m492 91 c23 -6 55 -26 78 -49 39
-38 39 -40 35 -103 -5 -76 -43 -146 -131 -238 l-58 -61 -99 104 c-85 89 -99
109 -100 138 l0 34 61 -7 c165 -17 228 -102 143 -196 -20 -22 -32 -40 -27 -40
16 0 51 43 68 83 15 36 15 41 -2 75 -23 48 -86 79 -178 89 l-69 8 -12 80 c-7
44 -12 81 -10 82 2 2 36 7 77 12 79 10 160 6 224 -11z m-734 -88 c-11 -57 -22
-85 -34 -92 -26 -14 -29 -7 -30 63 0 58 2 64 32 91 18 16 36 26 40 24 5 -3 1
-42 -8 -86z m132 44 c21 -14 37 -27 35 -29 -1 -1 -41 -22 -87 -45 -80 -40 -83
-41 -78 -18 3 13 10 48 17 80 l11 56 31 -9 c17 -5 49 -20 71 -35z m290 14 c26
-109 20 -138 -30 -138 -22 0 -168 98 -159 107 6 6 156 51 172 52 7 1 14 -9 17
-21z m-225 -159 c-46 -9 -109 -26 -140 -36 -32 -11 -59 -18 -61 -17 -2 2 -1
19 1 38 4 33 9 38 96 80 l91 45 48 -47 48 -47 -83 -16z m-473 1 c3 -5 -1 -10
-10 -10 -9 0 -13 5 -10 10 3 6 8 10 10 10 2 0 7 -4 10 -10z m261 -35 c-8 -42
-21 -45 -31 -8 -5 20 -2 31 11 40 24 17 28 11 20 -32z m464 13 l0 -32 -30 29
c-16 16 -32 26 -35 23 -3 -3 9 -18 27 -34 31 -27 33 -34 36 -99 l3 -70 -37 60
c-20 33 -51 79 -70 102 -19 23 -34 44 -34 46 0 3 32 6 70 6 l70 0 0 -31z m-99
-50 c69 -98 109 -184 102 -224 -5 -34 -23 -43 -143 -74 -48 -12 -70 -14 -82
-6 -13 8 -22 6 -36 -7 -10 -9 -23 -17 -28 -17 -14 1 -74 84 -74 103 0 9 -8 21
-18 26 -28 15 -82 123 -82 164 0 35 1 36 64 57 73 24 179 48 218 49 23 1 36
-11 79 -71z m-406 21 c8 -25 6 -27 -66 -67 -56 -30 -69 -31 -69 -6 0 12 105
92 122 93 4 1 10 -8 13 -20z m525 -45 c0 -8 -4 -12 -10 -9 -5 3 -10 10 -10 16
0 5 5 9 10 9 6 0 10 -7 10 -16z m-501 -25 c6 -18 11 -68 11 -113 l0 -81 -70
71 c-39 40 -70 76 -70 82 0 9 96 71 112 72 3 0 11 -14 17 -31z m631 -123 c-8
-7 -36 -25 -61 -40 l-46 -26 -13 31 c-16 37 -14 137 2 157 9 11 24 1 72 -47
53 -53 59 -63 46 -75z m-790 92 c0 -5 -11 -19 -24 -29 -28 -22 -56 -78 -56
-112 0 -61 82 -111 202 -124 l56 -6 14 -76 c13 -73 13 -76 -7 -85 -11 -4 -76
-9 -145 -10 -116 -1 -128 1 -170 24 -55 31 -90 81 -90 129 0 60 53 156 132
237 65 67 88 81 88 52z m92 -102 c55 -60 78 -93 83 -119 7 -35 6 -37 -18 -37
-46 0 -131 22 -169 43 -41 23 -63 64 -54 102 6 24 62 95 75 95 3 0 41 -38 83
-84z m140 -42 c-3 -19 0 -24 16 -24 21 0 86 -72 75 -84 -16 -15 -48 -3 -94 37
l-49 42 0 75 0 75 29 -48 c18 -31 26 -57 23 -73z m595 29 c4 -12 -109 -97
-124 -94 -4 1 -11 11 -15 21 -6 15 4 25 55 54 63 35 78 38 84 19z m-567 -23
c0 -5 -4 -10 -10 -10 -5 0 -10 5 -10 10 0 6 5 10 10 10 6 0 10 -4 10 -10z
m405 -9 c3 -5 1 -12 -5 -16 -5 -3 -10 1 -10 9 0 18 6 21 15 7z m232 -63 c50
-78 93 -182 93 -226 0 -15 -9 -41 -20 -59 -39 -65 -133 -67 -287 -7 -83 32
-93 53 -38 73 49 18 68 58 63 136 l-4 62 66 46 c35 26 68 47 73 47 4 0 29 -33
54 -72z m-215 8 c3 -15 -2 -27 -14 -35 -16 -10 -18 -8 -18 24 0 40 25 49 32
11z m-42 -11 c0 -34 -26 -58 -110 -100 -79 -40 -83 -39 -140 19 l-34 36 30 -6
c21 -4 34 -1 43 10 8 9 23 16 35 17 11 0 53 11 91 24 89 29 85 29 85 0z m-415
-15 l29 -30 -31 0 c-26 0 -31 4 -35 30 -3 17 -2 30 2 30 3 0 19 -13 35 -30z
m185 -10 c0 -5 -4 -10 -10 -10 -5 0 -10 5 -10 10 0 6 5 10 10 10 6 0 10 -4 10
-10z m290 -67 c0 -23 -4 -53 -10 -67 -9 -24 -56 -63 -65 -55 -2 3 2 40 8 83 9
56 18 82 32 92 25 18 35 3 35 -53z m-312 -3 c63 -61 46 -65 -33 -8 -50 36 -56
43 -39 49 10 4 19 8 20 8 0 1 24 -21 52 -49z m-52 -7 c69 -51 70 -68 7 -66
-22 1 -41 -5 -48 -14 -6 -8 -26 -15 -45 -16 -36 -2 -35 -5 -54 106 l-7 37 41
0 c34 0 54 -9 106 -47z m294 25 c0 -6 -5 -40 -11 -75 -10 -58 -13 -63 -33 -57
-47 14 -126 60 -115 66 25 16 146 77 152 78 4 0 7 -5 7 -12z m-151 -92 c7 -8
37 -25 67 -37 50 -21 70 -39 42 -39 -13 0 -148 78 -148 85 0 11 28 4 39 -9z
m17 -41 c43 -25 83 -45 88 -45 28 0 -49 -182 -98 -229 -87 -85 -168 -26 -239
173 -18 52 -24 83 -18 89 6 6 33 10 61 11 28 1 54 6 58 13 7 10 45 30 63 32 3
1 41 -19 85 -44z m-166 25 c0 -5 -4 -10 -10 -10 -5 0 -10 5 -10 10 0 6 5 10
10 10 6 0 10 -4 10 -10z"/>
<path d="M805 825 c-14 -13 -25 -33 -25 -45 0 -26 43 -70 68 -70 34 0 65 34
65 70 0 22 -7 39 -22 52 -31 25 -57 23 -86 -7z m54 -9 c15 -18 3 -46 -20 -46
-25 0 -35 26 -19 45 15 19 24 19 39 1z"/>
</g>
</svg>
