<?xml version="1.0" standalone="yes"?>
<svg xmlns="http://www.w3.org/2000/svg" width="225" height="225">
<path style="fill:#ffffff; stroke:none;" d="M0 0L0 225L225 225L225 0L0 0z"/>
<path style="fill:#b8b8b8; stroke:none;" d="M83 2C84.2484 2.6848 84.5484 2.74878 86 3C84.7517 2.31525 84.4515 2.25119 83 2z"/>
<path style="fill:#7e7e7e; stroke:none;" d="M86.6667 2.33333C86.2222 2.77783 87.2778 2.72221 87.3333 2.66667C87.7777 2.22227 86.7223 2.27774 86.6667 2.33333z"/>
<path style="fill:#606060; stroke:none;" d="M88 2C90.3316 2.98453 92.4567 2.98126 95 3C92.6684 2.01547 90.5434 2.01874 88 2z"/>
<path style="fill:#898989; stroke:none;" d="M95.6667 2.33333C95.2222 2.77782 96.2778 2.72223 96.3333 2.66667C96.7777 2.22227 95.7223 2.27773 95.6667 2.33333z"/>
<path style="fill:#b8b8b8; stroke:none;" d="M97 2C98.2484 2.6848 98.5484 2.74878 100 3C98.7517 2.31525 98.4515 2.25119 97 2M125 2C126.248 2.6848 126.548 2.74878 128 3C126.752 2.31525 126.451 2.25119 125 2z"/>
<path style="fill:#6b6b6b; stroke:none;" d="M128 2C130.613 3.0977 133.165 2.99278 136 3C133.387 1.90228 130.836 2.00722 128 2z"/>
<path style="fill:#8e8e8e; stroke:none;" d="M136.667 2.33333C136.222 2.7778 137.278 2.7222 137.333 2.66667C137.778 2.22226 136.722 2.27773 136.667 2.33333z"/>
<path style="fill:#b8b8b8; stroke:none;" d="M138 2C139.248 2.68475 139.549 2.74881 141 3C139.752 2.31517 139.452 2.25122 138 2M78 3L79 4L78 3z"/>
<path style="fill:#898989; stroke:none;" d="M79 3L80 4L79 3z"/>
<path style="fill:#4b4b4b; stroke:none;" d="M80 3L81 4L80 3z"/>
<path style="fill:#000000; stroke:none;" d="M28 43C35.163 41.3618 41.6067 40.0008 49 40C42.7568 46.5278 36.5407 54.1976 34 63C40.5035 61.5134 46.3223 61 53 61C46.6571 71.373 46 81.078 46 93C49.3575 90.0203 51.9589 86.3112 55 83C55.468 88.7297 56.9176 95.102 60.1335 99.9606C62.0916 102.919 65.0794 104.998 66.9151 108.039C71.8128 116.154 74.3872 125.095 80 133C76.5386 134.26 73.3843 136.112 70 137.572C56.4886 143.398 36.606 151.167 34.3048 168C32.9877 177.635 40.1412 185.099 47.0039 190.739C60.6086 201.921 77.5908 209.811 94 215.95C99.5751 218.035 105.973 221.478 112 221.722C118.267 221.976 125.249 218.101 131 215.95C147.796 209.667 165.157 201.458 178.996 189.916C185.872 184.181 192.328 176.591 190.531 167C187.488 150.758 168.322 143.316 155 137.572C151.616 136.112 148.461 134.26 145 133C149.963 124.95 153.268 116.02 158.085 108.039C159.921 104.998 162.908 102.919 164.867 99.9606C168.082 95.102 169.532 88.7297 170 83C172.913 86.1725 175.487 89.5043 178 93C182.166 83.0709 177.2 69.5042 172 61C178.678 61 184.496 61.5134 191 63C188.459 54.1976 182.243 46.5279 176 40C183.309 40.0048 189.915 41.3805 197 43C186.879 22.6544 164.94 5.46425 142 3.17053C135.942 2.56483 129.038 2.50279 123 3.28935C119.362 3.76321 115.686 5.30583 112 5.16127C102.198 4.77681 93.0642 2.16425 83 3.17053C60.2363 5.44661 37.7382 22.5057 28 43z"/>
<path style="fill:#606060; stroke:none;" d="M103 3L104 4L103 3z"/>
<path style="fill:#969696; stroke:none;" d="M104 3L105 4L104 3z"/>
<path style="fill:#c6c6c6; stroke:none;" d="M119 3L120 4L119 3z"/>
<path style="fill:#969696; stroke:none;" d="M120 3L121 4L120 3z"/>
<path style="fill:#585858; stroke:none;" d="M121 3L122 4L121 3z"/>
<path style="fill:#535353; stroke:none;" d="M144 3L145 4L144 3z"/>
<path style="fill:#898989; stroke:none;" d="M145 3L146 4L145 3z"/>
<path style="fill:#e2e2e2; stroke:none;" d="M146.667 3.33333C146.222 3.77782 147.278 3.7222 147.333 3.66667C147.778 3.22226 146.722 3.27773 146.667 3.33333z"/>
<path style="fill:#acacac; stroke:none;" d="M74 4L75 5L74 4z"/>
<path style="fill:#656565; stroke:none;" d="M75 4L76 5L75 4z"/>
<path style="fill:#767676; stroke:none;" d="M108 4L109 5L108 4z"/>
<path style="fill:#bebebe; stroke:none;" d="M109 4L110 5L109 4M115 4L116 5L115 4z"/>
<path style="fill:#7e7e7e; stroke:none;" d="M116 4L117 5L116 4z"/>
<path style="fill:#585858; stroke:none;" d="M149 4L150 5L149 4z"/>
<path style="fill:#a6a6a6; stroke:none;" d="M150 4L151 5L150 4z"/>
<path style="fill:#8e8e8e; stroke:none;" d="M71 5L72 6L71 5z"/>
<path style="fill:#303030; stroke:none;" d="M111 5L112 6L111 5z"/>
<path style="fill:#828282; stroke:none;" d="M112 5L113 6L112 5z"/>
<path style="fill:#373737; stroke:none;" d="M113 5L114 6L113 5z"/>
<path style="fill:#7e7e7e; stroke:none;" d="M153 5L154 6L153 5z"/>
<path style="fill:#c6c6c6; stroke:none;" d="M154 5L155 6L154 5z"/>
<path style="fill:#8e8e8e; stroke:none;" d="M68 6L69 7L68 6z"/>
<path style="fill:#7f7f7f; stroke:none;" d="M156 6L157 7L156 6z"/>
<path style="fill:#c6c6c6; stroke:none;" d="M65 7L66 8L65 7z"/>
<path style="fill:#4b4b4b; stroke:none;" d="M66 7L67 8L66 7z"/>
<path style="fill:#3c3c3c; stroke:none;" d="M158 7L159 8L158 7z"/>
<path style="fill:#bebebe; stroke:none;" d="M159 7L160 8L159 7z"/>
<path style="fill:#a6a6a6; stroke:none;" d="M63 8L64 9L63 8z"/>
<path style="fill:#4b4b4b; stroke:none;" d="M87.6667 8.33333C87.2222 8.7778 88.2777 8.72226 88.3333 8.66667C88.7777 8.22226 87.7222 8.27777 87.6667 8.33333z"/>
<path style="fill:#6b6b6b; stroke:none;" d="M89 8C91.0521 8.87424 92.7472 8.95279 95 9C92.9479 8.12576 91.2528 8.04721 89 8z"/>
<path style="fill:#373737; stroke:none;" d="M95 8L96 9L95 8z"/>
<path style="fill:#464646; stroke:none;" d="M130 8C132.332 8.98453 134.457 8.98126 137 9C134.668 8.01547 132.543 8.01874 130 8z"/>
<path style="fill:#acacac; stroke:none;" d="M161 8L162 9L161 8z"/>
<path style="fill:#a6a6a6; stroke:none;" d="M61 9L62 10L61 9z"/>
<path style="fill:#464646; stroke:none;" d="M80 9L81 10L80 9z"/>
<path style="fill:#acacac; stroke:none;" d="M81.6667 9.33333C81.2222 9.77782 82.2778 9.72223 82.3333 9.66667C82.7777 9.22224 81.7222 9.27776 81.6667 9.33333z"/>
<path style="fill:#ffffff; stroke:none;" d="M43 33C50.0098 34.6882 56.2829 36.2449 63 39C56.4591 43.6747 50.5597 47.1258 46 54C53.1032 54.3097 58.578 57.3263 65 60C60.3175 63.8157 56.4633 67.3997 54 73C59.5922 70.9649 63.8692 68.1441 70 68C70.3614 24.3524 154.639 24.3923 155 68C161.131 68.1441 165.408 70.9649 171 73C168.524 67.3723 164.55 63.9775 160 60C166.422 57.3263 171.897 54.3097 179 54C174.69 47.5378 169.16 43.0013 162 40C168.004 35.763 174.772 33.9335 182 33C170.465 16.7606 149.398 8.54065 130 9.01466C123.968 9.16206 117.846 12.2569 112 12.0231C105.988 11.7827 100.152 9.16537 94 9.01466C74.9517 8.54799 54.2782 17.1218 43 33z"/>
<path style="fill:#c6c6c6; stroke:none;" d="M99 9C100.248 9.68481 100.548 9.74878 102 10C100.752 9.31525 100.451 9.25119 99 9z"/>
<path style="fill:#656565; stroke:none;" d="M102 9L103 10L102 9z"/>
<path style="fill:#303030; stroke:none;" d="M103 9L104 10L103 9z"/>
<path style="fill:#373737; stroke:none;" d="M121 9L122 10L121 9z"/>
<path style="fill:#707070; stroke:none;" d="M122 9L123 10L122 9z"/>
<path style="fill:#bebebe; stroke:none;" d="M123.667 9.33333C123.222 9.77782 124.278 9.72223 124.333 9.66667C124.778 9.22226 123.722 9.27776 123.667 9.33333z"/>
<path style="fill:#dadada; stroke:none;" d="M140.667 9.33333C140.222 9.7778 141.278 9.72223 141.333 9.66667C141.778 9.22221 140.722 9.27776 140.667 9.33333z"/>
<path style="fill:#8e8e8e; stroke:none;" d="M142.667 9.33333C142.222 9.77782 143.278 9.7222 143.333 9.66667C143.778 9.22221 142.722 9.27776 142.667 9.33333z"/>
<path style="fill:#4b4b4b; stroke:none;" d="M144 9L145 10L144 9z"/>
<path style="fill:#acacac; stroke:none;" d="M163 9L164 10L163 9z"/>
<path style="fill:#b8b8b8; stroke:none;" d="M59 10L60 11L59 10z"/>
<path style="fill:#606060; stroke:none;" d="M76 10L77 11L76 10z"/>
<path style="fill:#a6a6a6; stroke:none;" d="M77 10L78 11L77 10z"/>
<path style="fill:#c6c6c6; stroke:none;" d="M105 10L106 11L105 10z"/>
<path style="fill:#828282; stroke:none;" d="M106 10L107 11L106 10z"/>
<path style="fill:#303030; stroke:none;" d="M117 10L118 11L117 10z"/>
<path style="fill:#969696; stroke:none;" d="M118 10L119 11L118 10z"/>
<path style="fill:#a6a6a6; stroke:none;" d="M147 10L148 11L147 10z"/>
<path style="fill:#585858; stroke:none;" d="M148 10L149 11L148 10z"/>
<path style="fill:#c6c6c6; stroke:none;" d="M165 10L166 11L165 10z"/>
<path style="fill:#d1d1d1; stroke:none;" d="M57 11L58 12L57 11z"/>
<path style="fill:#303030; stroke:none;" d="M58 11L59 12L58 11z"/>
<path style="fill:#7e7e7e; stroke:none;" d="M73 11L74 12L73 11z"/>
<path style="fill:#c6c6c6; stroke:none;" d="M74 11L75 12L74 11z"/>
<path style="fill:#8e8e8e; stroke:none;" d="M109 11L110 12L109 11z"/>
<path style="fill:#898989; stroke:none;" d="M115 11L116 12L115 11z"/>
<path style="fill:#c6c6c6; stroke:none;" d="M150 11L151 12L150 11z"/>
<path style="fill:#7e7e7e; stroke:none;" d="M151 11L152 12L151 11z"/>
<path style="fill:#4e4e4e; stroke:none;" d="M166 11L167 12L166 11z"/>
<path style="fill:#767676; stroke:none;" d="M56 12L57 13L56 12z"/>
<path style="fill:#606060; stroke:none;" d="M70 12L71 13L70 12z"/>
<path style="fill:#c6c6c6; stroke:none;" d="M71 12L72 13L71 12z"/>
<path style="fill:#a6a6a6; stroke:none;" d="M111 12L112 13L111 12M113 12L114 13L113 12z"/>
<path style="fill:#c6c6c6; stroke:none;" d="M153 12L154 13L153 12z"/>
<path style="fill:#656565; stroke:none;" d="M154 12L155 13L154 12z"/>
<path style="fill:#8e8e8e; stroke:none;" d="M168 12L169 13L168 12z"/>
<path style="fill:#bebebe; stroke:none;" d="M54 13L55 14L54 13z"/>
<path style="fill:#969696; stroke:none;" d="M68 13L69 14L68 13z"/>
<path style="fill:#9c9c9c; stroke:none;" d="M156 13L157 14L156 13z"/>
<path style="fill:#2c2c2c; stroke:none;" d="M169 13L170 14L169 13z"/>
<path style="fill:#707070; stroke:none;" d="M53 14L54 15L53 14z"/>
<path style="fill:#acacac; stroke:none;" d="M66 14L67 15L66 14z"/>
<path style="fill:#b8b8b8; stroke:none;" d="M158 14L159 15L158 14z"/>
<path style="fill:#2c2c2c; stroke:none;" d="M159 14L160 15L159 14z"/>
<path style="fill:#8e8e8e; stroke:none;" d="M171 14L172 15L171 14z"/>
<path style="fill:#acacac; stroke:none;" d="M64 15L65 16L64 15z"/>
<path style="fill:#bebebe; stroke:none;" d="M160 15L161 16L160 15z"/>
<path style="fill:#3c3c3c; stroke:none;" d="M172 15L173 16L172 15z"/>
<path style="fill:#acacac; stroke:none;" d="M50 16L51 17L50 16z"/>
<path style="fill:#9c9c9c; stroke:none;" d="M62 16L63 17L62 16z"/>
<path style="fill:#a6a6a6; stroke:none;" d="M162 16L163 17L162 16z"/>
<path style="fill:#bebebe; stroke:none;" d="M174 16L175 17L174 16z"/>
<path style="fill:#707070; stroke:none;" d="M49 17L50 18L49 17M60 17L61 18L60 17M164 17L165 18L164 17z"/>
<path style="fill:#898989; stroke:none;" d="M175 17L176 18L175 17z"/>
<path style="fill:#3c3c3c; stroke:none;" d="M48 18L49 19L48 18z"/>
<path style="fill:#cdcdcd; stroke:none;" d="M165 18L166 19L165 18z"/>
<path style="fill:#535353; stroke:none;" d="M176 18L177 19L176 18z"/>
<path style="fill:#898989; stroke:none;" d="M57 19L58 20L57 19z"/>
<path style="fill:#767676; stroke:none;" d="M167 19L168 20L167 19z"/>
<path style="fill:#cdcdcd; stroke:none;" d="M56 20L57 21L56 20z"/>
<path style="fill:#bebebe; stroke:none;" d="M168 20L169 21L168 20z"/>
<path style="fill:#d1d1d1; stroke:none;" d="M44 21L45 22L44 21z"/>
<path style="fill:#464646; stroke:none;" d="M54 21L55 22L54 21z"/>
<path style="fill:#373737; stroke:none;" d="M170 21L171 22L170 21z"/>
<path style="fill:#d1d1d1; stroke:none;" d="M180 21L181 22L180 21z"/>
<path style="fill:#c6c6c6; stroke:none;" d="M43 22L44 23L43 22z"/>
<path style="fill:#7e7e7e; stroke:none;" d="M53 22L54 23L53 22z"/>
<path style="fill:#656565; stroke:none;" d="M171 22L172 23L171 22z"/>
<path style="fill:#c6c6c6; stroke:none;" d="M181 22L182 23L181 22M42 23L43 24L42 23z"/>
<path style="fill:#a6a6a6; stroke:none;" d="M52 23L53 24L52 23z"/>
<path style="fill:#969696; stroke:none;" d="M172 23L173 24L172 23z"/>
<path style="fill:#b8b8b8; stroke:none;" d="M182 23L183 24L182 23z"/>
<path style="fill:#d1d1d1; stroke:none;" d="M41 24L42 25L41 24z"/>
<path style="fill:#bebebe; stroke:none;" d="M51 24L52 25L51 24z"/>
<path style="fill:#b8b8b8; stroke:none;" d="M173 24L174 25L173 24z"/>
<path style="fill:#c6c6c6; stroke:none;" d="M183 24L184 25L183 24z"/>
<path style="fill:#d1d1d1; stroke:none;" d="M50 25L51 26L50 25z"/>
<path style="fill:#cdcdcd; stroke:none;" d="M174 25L175 26L174 25z"/>
<path style="fill:#c6c6c6; stroke:none;" d="M184 25L185 26L184 25z"/>
<path style="fill:#4e4e4e; stroke:none;" d="M37 29L38 30L37 29z"/>
<path style="fill:#4b4b4b; stroke:none;" d="M187 29L188 30L187 29z"/>
<path style="fill:#7f7f7f; stroke:none;" d="M36 30L37 31L36 30z"/>
<path style="fill:#828282; stroke:none;" d="M188 30L189 31L188 30z"/>
<path style="fill:#b8b8b8; stroke:none;" d="M35 31L36 32L35 31z"/>
<path style="fill:#bebebe; stroke:none;" d="M189 31L190 32L189 31z"/>
<path style="fill:#8e8e8e; stroke:none;" d="M42 33L43 34L42 33z"/>
<path style="fill:#d1d1d1; stroke:none;" d="M43.6667 33.3333C43.2223 33.7777 44.2777 33.7223 44.3333 33.6667C44.7778 33.2222 43.7222 33.2778 43.6667 33.3333z"/>
<path style="fill:#e2e2e2; stroke:none;" d="M178 33C179.506 33.683 180.315 33.8259 182 34C180.494 33.317 179.685 33.1741 178 33z"/>
<path style="fill:#8e8e8e; stroke:none;" d="M182 33L183 34L182 33z"/>
<path style="fill:#535353; stroke:none;" d="M33 34L34 35L33 34z"/>
<path style="fill:#606060; stroke:none;" d="M49 34L50 35L49 34z"/>
<path style="fill:#8e8e8e; stroke:none;" d="M50 34L51 35L50 34z"/>
<path style="fill:#c6c6c6; stroke:none;" d="M51 34L52 35L51 34M173 34L174 35L173 34z"/>
<path style="fill:#8e8e8e; stroke:none;" d="M174 34L175 35L174 34z"/>
<path style="fill:#606060; stroke:none;" d="M175 34L176 35L175 34z"/>
<path style="fill:#707070; stroke:none;" d="M191 34L192 35L191 34z"/>
<path style="fill:#9c9c9c; stroke:none;" d="M32 35L33 36L32 35z"/>
<path style="fill:#3c3c3c; stroke:none;" d="M53 35L54 36L53 35z"/>
<path style="fill:#9c9c9c; stroke:none;" d="M54 35L55 36L54 35M170 35L171 36L170 35z"/>
<path style="fill:#3c3c3c; stroke:none;" d="M171 35L172 36L171 35z"/>
<path style="fill:#b8b8b8; stroke:none;" d="M192 35L193 36L192 35z"/>
<path style="fill:#d1d1d1; stroke:none;" d="M31 36L32 37L31 36z"/>
<path style="fill:#3c3c3c; stroke:none;" d="M56 36L57 37L56 36z"/>
<path style="fill:#b8b8b8; stroke:none;" d="M57 36L58 37L57 36M104 36C105.506 36.683 106.315 36.8259 108 37C106.494 36.317 105.685 36.1741 104 36z"/>
<path style="fill:#9c9c9c; stroke:none;" d="M108 36C110.89 37.2129 113.874 36.9983 117 37C114.11 35.7871 111.126 36.0017 108 36z"/>
<path style="fill:#b8b8b8; stroke:none;" d="M117 36C118.248 36.6848 118.548 36.7488 120 37C118.752 36.3152 118.452 36.2512 117 36z"/>
<path style="fill:#acacac; stroke:none;" d="M167 36L168 37L167 36z"/>
<path style="fill:#373737; stroke:none;" d="M168 36L169 37L168 36z"/>
<path style="fill:#969696; stroke:none;" d="M59 37L60 38L59 37z"/>
<path style="fill:#8e8e8e; stroke:none;" d="M97.6667 37.3333C97.2222 37.7778 98.2778 37.7222 98.3333 37.6667C98.7778 37.2222 97.7222 37.2778 97.6667 37.3333z"/>
<path style="fill:#373737; stroke:none;" d="M99.6667 37.3333C99.2222 37.7778 100.278 37.7222 100.333 37.6667C100.778 37.2222 99.7222 37.2778 99.6667 37.3333z"/>
<path style="fill:#303030; stroke:none;" d="M124 37L125 38L124 37z"/>
<path style="fill:#606060; stroke:none;" d="M125 37L126 38L125 37z"/>
<path style="fill:#b8b8b8; stroke:none;" d="M126.667 37.3333C126.222 37.7778 127.278 37.7222 127.333 37.6667C127.778 37.2222 126.722 37.2778 126.667 37.3333z"/>
<path style="fill:#969696; stroke:none;" d="M165 37L166 38L165 37z"/>
<path style="fill:#303030; stroke:none;" d="M193 37L194 38L193 37z"/>
<path style="fill:#6b6b6b; stroke:none;" d="M30 38L31 39L30 38z"/>
<path style="fill:#9c9c9c; stroke:none;" d="M61 38L62 39L61 38z"/>
<path style="fill:#d1d1d1; stroke:none;" d="M92 38L93 39L92 38z"/>
<path style="fill:#969696; stroke:none;" d="M93 38L94 39L93 38z"/>
<path style="fill:#4e4e4e; stroke:none;" d="M94 38L95 39L94 38z"/>
<path style="fill:#4b4b4b; stroke:none;" d="M130 38L131 39L130 38z"/>
<path style="fill:#8e8e8e; stroke:none;" d="M131 38L132 39L131 38z"/>
<path style="fill:#cdcdcd; stroke:none;" d="M132 38L133 39L132 38z"/>
<path style="fill:#9c9c9c; stroke:none;" d="M163 38L164 39L163 38z"/>
<path style="fill:#828282; stroke:none;" d="M194 38L195 39L194 38z"/>
<path style="fill:#bebebe; stroke:none;" d="M29 39L30 40L29 39z"/>
<path style="fill:#cdcdcd; stroke:none;" d="M89 39L90 40L89 39z"/>
<path style="fill:#707070; stroke:none;" d="M90 39L91 40L90 39z"/>
<path style="fill:#656565; stroke:none;" d="M134 39L135 40L134 39z"/>
<path style="fill:#bebebe; stroke:none;" d="M135 39L136 40L135 39z"/>
<path style="fill:#cdcdcd; stroke:none;" d="M195 39L196 40L195 39z"/>
<path style="fill:#585858; stroke:none;" d="M38 40C39.2483 40.6847 39.5485 40.7488 41 41C39.7516 40.3152 39.4516 40.2512 38 40z"/>
<path style="fill:#898989; stroke:none;" d="M41.6667 40.3333C41.2222 40.7778 42.2778 40.7222 42.3333 40.6667C42.7778 40.2222 41.7222 40.2778 41.6667 40.3333z"/>
<path style="fill:#acacac; stroke:none;" d="M43 40C44.6482 40.9241 46.1749 41.4494 48 42C46.4602 40.1969 45.4025 40.168 43 40z"/>
<path style="fill:#606060; stroke:none;" d="M48 40L49 41L48 40z"/>
<path style="fill:#b8b8b8; stroke:none;" d="M61 40L62 41L61 40z"/>
<path style="fill:#969696; stroke:none;" d="M87 40L88 41L87 40z"/>
<path style="fill:#828282; stroke:none;" d="M137 40L138 41L137 40z"/>
<path style="fill:#b8b8b8; stroke:none;" d="M163 40L164 41L163 40z"/>
<path style="fill:#6b6b6b; stroke:none;" d="M176 40L177 41L176 40z"/>
<path style="fill:#acacac; stroke:none;" d="M177 42L181 41C178.954 40.2489 178.404 40.3444 177 42z"/>
<path style="fill:#7f7f7f; stroke:none;" d="M181 40C182.248 40.6848 182.548 40.7488 184 41C182.752 40.3152 182.452 40.2512 181 40z"/>
<path style="fill:#585858; stroke:none;" d="M184.667 40.3333C184.222 40.7778 185.278 40.7222 185.333 40.6667C185.778 40.2223 184.722 40.2777 184.667 40.3333z"/>
<path style="fill:#6b6b6b; stroke:none;" d="M28 41L29 42L28 41z"/>
<path style="fill:#2c2c2c; stroke:none;" d="M33 41L34 42L33 41z"/>
<path style="fill:#898989; stroke:none;" d="M34 41L35 42L34 41z"/>
<path style="fill:#acacac; stroke:none;" d="M59 41L60 42L59 41z"/>
<path style="fill:#767676; stroke:none;" d="M85 41L86 42L85 41z"/>
<path style="fill:#656565; stroke:none;" d="M139 41L140 42L139 41z"/>
<path style="fill:#acacac; stroke:none;" d="M165 41L166 42L165 41z"/>
<path style="fill:#bebebe; stroke:none;" d="M189 41L190 42L189 41z"/>
<path style="fill:#828282; stroke:none;" d="M190 41L191 42L190 41z"/>
<path style="fill:#2c2c2c; stroke:none;" d="M191 41L192 42L191 41z"/>
<path style="fill:#707070; stroke:none;" d="M196 41L197 42L196 41z"/>
<path style="fill:#cdcdcd; stroke:none;" d="M27 42L27 44L29 44C28.4549 42.3648 28.6352 42.5451 27 42z"/>
<path style="fill:#6b6b6b; stroke:none;" d="M30 42L31 43L30 42z"/>
<path style="fill:#b8b8b8; stroke:none;" d="M31 42L32 43L31 42z"/>
<path style="fill:#c6c6c6; stroke:none;" d="M46 42L47 43L46 42z"/>
<path style="fill:#828282; stroke:none;" d="M57 42L58 43L57 42z"/>
<path style="fill:#7f7f7f; stroke:none;" d="M83 42L84 43L83 42z"/>
<path style="fill:#767676; stroke:none;" d="M141 42L142 43L141 42z"/>
<path style="fill:#828282; stroke:none;" d="M167 42L168 43L167 42z"/>
<path style="fill:#cdcdcd; stroke:none;" d="M178 42L179 43L178 42z"/>
<path style="fill:#acacac; stroke:none;" d="M193 42L194 43L193 42z"/>
<path style="fill:#6b6b6b; stroke:none;" d="M194 42L195 43L194 42z"/>
<path style="fill:#cdcdcd; stroke:none;" d="M197 42L196 44L198 44C198 42.1468 198.3 42.6499 197 42M45 43L46 44L45 43z"/>
<path style="fill:#2c2c2c; stroke:none;" d="M55 43L56 44L55 43z"/>
<path style="fill:#b8b8b8; stroke:none;" d="M81 43L82 44L81 43z"/>
<path style="fill:#464646; stroke:none;" d="M99 43L100 44L99 43z"/>
<path style="fill:#969696; stroke:none;" d="M100 43C101.248 43.6848 101.548 43.7488 103 44C101.752 43.3152 101.452 43.2512 100 43z"/>
<path style="fill:#d1d1d1; stroke:none;" d="M103 43C104.248 43.6848 104.548 43.7488 106 44C104.752 43.3152 104.451 43.2512 103 43z"/>
<path style="fill:#ffffff; stroke:none;" d="M77 75C73.3316 75 68.4388 74.2307 65.1481 76.179C59.3917 79.5874 62.1401 90.3067 64.8248 94.892C66.7922 98.2519 70.5795 99.6129 72.4421 103.055C76.8096 111.125 77.8171 119.818 84.1852 126.996C93.9506 138.004 106.603 136.022 120 136C123.026 135.995 126.064 136.059 129 135.211C144.469 130.74 146.098 114.992 152.558 103.055C154.42 99.613 158.208 98.2519 160.175 94.892C162.86 90.3066 165.608 79.5874 159.852 76.179C156.561 74.2307 151.668 75 148 75C148 67.5894 149.082 59.4026 144.2 53.1736C140.663 48.6616 135.379 46.5663 130 45.1559C116.136 41.5204 92.0243 40.5798 81.5324 52.3009C75.8901 58.6043 77 67.1776 77 75z"/>
<path style="fill:#d1d1d1; stroke:none;" d="M118 43C119.248 43.6848 119.548 43.7488 121 44C119.752 43.3152 119.451 43.2512 118 43z"/>
<path style="fill:#9c9c9c; stroke:none;" d="M121 43C122.248 43.6848 122.548 43.7488 124 44C122.752 43.3152 122.452 43.2512 121 43z"/>
<path style="fill:#212121; stroke:none;" d="M124.667 43.3333C124.222 43.7778 125.278 43.7222 125.333 43.6667C125.778 43.2223 124.722 43.2777 124.667 43.3333z"/>
<path style="fill:#b8b8b8; stroke:none;" d="M143 43L144 44L143 43z"/>
<path style="fill:#2c2c2c; stroke:none;" d="M169 43L170 44L169 43z"/>
<path style="fill:#898989; stroke:none;" d="M54 44L55 45L54 44z"/>
<path style="fill:#656565; stroke:none;" d="M80 44L81 45L80 44z"/>
<path style="fill:#767676; stroke:none;" d="M95 44L96 45L95 44z"/>
<path style="fill:#e2e2e2; stroke:none;" d="M96.6667 44.3333C96.2222 44.7778 97.2778 44.7222 97.3333 44.6667C97.7778 44.2222 96.7222 44.2778 96.6667 44.3333z"/>
<path style="fill:#d1d1d1; stroke:none;" d="M127 44L128 45L127 44z"/>
<path style="fill:#a6a6a6; stroke:none;" d="M128 44L129 45L128 44z"/>
<path style="fill:#656565; stroke:none;" d="M129 44L130 45L129 44z"/>
<path style="fill:#767676; stroke:none;" d="M144 44L145 45L144 44M170 44L171 45L170 44z"/>
<path style="fill:#bebebe; stroke:none;" d="M53 45L54 46L53 45z"/>
<path style="fill:#8e8e8e; stroke:none;" d="M92 45L93 46L92 45z"/>
<path style="fill:#d1d1d1; stroke:none;" d="M131 45L132 46L131 45z"/>
<path style="fill:#898989; stroke:none;" d="M132 45L133 46L132 45z"/>
<path style="fill:#303030; stroke:none;" d="M145 45L146 46L145 45z"/>
<path style="fill:#acacac; stroke:none;" d="M171 45L172 46L171 45z"/>
<path style="fill:#373737; stroke:none;" d="M43 46L44 47L43 46z"/>
<path style="fill:#606060; stroke:none;" d="M89 46L90 47L89 46z"/>
<path style="fill:#cdcdcd; stroke:none;" d="M90 46L91 47L90 46M134 46L135 47L134 46z"/>
<path style="fill:#535353; stroke:none;" d="M135 46L136 47L135 46z"/>
<path style="fill:#cdcdcd; stroke:none;" d="M172 46L173 47L172 46z"/>
<path style="fill:#373737; stroke:none;" d="M181 46L182 47L181 46z"/>
<path style="fill:#6b6b6b; stroke:none;" d="M42 47L43 48L42 47z"/>
<path style="fill:#707070; stroke:none;" d="M87 47L88 48L87 47z"/>
<path style="fill:#656565; stroke:none;" d="M137 47L138 48L137 47z"/>
<path style="fill:#707070; stroke:none;" d="M182 47L183 48L182 47z"/>
<path style="fill:#acacac; stroke:none;" d="M41 48L42 49L41 48z"/>
<path style="fill:#373737; stroke:none;" d="M85 48L86 49L85 48z"/>
<path style="fill:#303030; stroke:none;" d="M139 48L140 49L139 48z"/>
<path style="fill:#a6a6a6; stroke:none;" d="M183 48L184 49L183 48z"/>
<path style="fill:#d1d1d1; stroke:none;" d="M49 49L50 50L49 49z"/>
<path style="fill:#303030; stroke:none;" d="M75 49L76 50L75 49z"/>
<path style="fill:#969696; stroke:none;" d="M84 49L85 50L84 49z"/>
<path style="fill:#8e8e8e; stroke:none;" d="M140 49L141 50L140 49z"/>
<path style="fill:#585858; stroke:none;" d="M149 49L150 50L149 49z"/>
<path style="fill:#d1d1d1; stroke:none;" d="M175 49L176 50L175 49z"/>
<path style="fill:#303030; stroke:none;" d="M40 50L41 51L40 50z"/>
<path style="fill:#bebebe; stroke:none;" d="M48 50L49 51L48 50z"/>
<path style="fill:#828282; stroke:none;" d="M74 50L75 51L74 50z"/>
<path style="fill:#c6c6c6; stroke:none;" d="M83 50L84 51L83 50M141 50L142 51L141 50z"/>
<path style="fill:#8e8e8e; stroke:none;" d="M150 50L151 51L150 50z"/>
<path style="fill:#b8b8b8; stroke:none;" d="M176 50L177 51L176 50z"/>
<path style="fill:#2c2c2c; stroke:none;" d="M184 50L185 51L184 50z"/>
<path style="fill:#969696; stroke:none;" d="M39 51L40 52L39 51z"/>
<path style="fill:#9c9c9c; stroke:none;" d="M47 51L48 52L47 51z"/>
<path style="fill:#8e8e8e; stroke:none;" d="M177 51L178 52L177 51M185 51L186 52L185 51z"/>
<path style="fill:#6b6b6b; stroke:none;" d="M46 52L47 53L46 52z"/>
<path style="fill:#4e4e4e; stroke:none;" d="M73 52L74 53L73 52z"/>
<path style="fill:#373737; stroke:none;" d="M151 52L152 53L151 52z"/>
<path style="fill:#535353; stroke:none;" d="M178 52L179 53L178 52z"/>
<path style="fill:#464646; stroke:none;" d="M38 53L39 54L38 53z"/>
<path style="fill:#d1d1d1; stroke:none;" d="M72 53L73 54L72 53z"/>
<path style="fill:#acacac; stroke:none;" d="M80 53L81 54L80 53M144 53L145 54L144 53z"/>
<path style="fill:#cdcdcd; stroke:none;" d="M152 53L153 54L152 53z"/>
<path style="fill:#464646; stroke:none;" d="M186 53L187 54L186 53z"/>
<path style="fill:#b8b8b8; stroke:none;" d="M37 54L38 55L37 54z"/>
<path style="fill:#606060; stroke:none;" d="M47 54C48.2483 54.6848 48.5485 54.7488 50 55C48.7516 54.3152 48.4516 54.2512 47 54z"/>
<path style="fill:#bebebe; stroke:none;" d="M50.6667 54.3333C50.2222 54.7778 51.2778 54.7222 51.3333 54.6667C51.7778 54.2222 50.7222 54.2778 50.6667 54.3333z"/>
<path style="fill:#606060; stroke:none;" d="M72 54L73 55L72 54z"/>
<path style="fill:#656565; stroke:none;" d="M79 54L80 55L79 54M145 54L146 55L145 54z"/>
<path style="fill:#606060; stroke:none;" d="M152 54L153 55L152 54z"/>
<path style="fill:#969696; stroke:none;" d="M173.667 54.3333C173.222 54.7778 174.278 54.7222 174.333 54.6667C174.778 54.2222 173.722 54.2777 173.667 54.3333z"/>
<path style="fill:#606060; stroke:none;" d="M175 54C176.248 54.6848 176.548 54.7488 178 55C176.752 54.3152 176.452 54.2512 175 54z"/>
<path style="fill:#b8b8b8; stroke:none;" d="M187 54L188 55L187 54z"/>
<path style="fill:#898989; stroke:none;" d="M54 55L55 56L54 55z"/>
<path style="fill:#d1d1d1; stroke:none;" d="M55 55L56 56L55 55M169 55L170 56L169 55z"/>
<path style="fill:#898989; stroke:none;" d="M170 55L171 56L170 55z"/>
<path style="fill:#9c9c9c; stroke:none;" d="M36 56L37 57L36 56z"/>
<path style="fill:#969696; stroke:none;" d="M57 56L58 57L57 56z"/>
<path style="fill:#b8b8b8; stroke:none;" d="M71 56L72 57L71 56z"/>
<path style="fill:#8e8e8e; stroke:none;" d="M78 56L79 57L78 56M146 56L147 57L146 56z"/>
<path style="fill:#b8b8b8; stroke:none;" d="M153 56L154 57L153 56z"/>
<path style="fill:#969696; stroke:none;" d="M167 56L168 57L167 56z"/>
<path style="fill:#a6a6a6; stroke:none;" d="M188 56L189 57L188 56z"/>
<path style="fill:#7e7e7e; stroke:none;" d="M59 57L60 58L59 57z"/>
<path style="fill:#656565; stroke:none;" d="M71 57L72 58L71 57z"/>
<path style="fill:#707070; stroke:none;" d="M153 57L154 58L153 57z"/>
<path style="fill:#7e7e7e; stroke:none;" d="M165 57L166 58L165 57z"/>
<path style="fill:#969696; stroke:none;" d="M35 58L36 59L35 58M61 58L62 59L61 58z"/>
<path style="fill:#606060; stroke:none;" d="M77 58L78 59L77 58M147 58L148 59L147 58z"/>
<path style="fill:#969696; stroke:none;" d="M163 58L164 59L163 58z"/>
<path style="fill:#a6a6a6; stroke:none;" d="M189 58L190 59L189 58z"/>
<path style="fill:#bebebe; stroke:none;" d="M63 59L64 60L63 59M77 59L78 60L77 59z"/>
<path style="fill:#b8b8b8; stroke:none;" d="M147 59L148 60L147 59z"/>
<path style="fill:#bebebe; stroke:none;" d="M161 59L162 60L161 59z"/>
<path style="fill:#a6a6a6; stroke:none;" d="M34 60L35 61L34 60z"/>
<path style="fill:#acacac; stroke:none;" d="M64 60L65 61L64 60z"/>
<path style="fill:#b8b8b8; stroke:none;" d="M70.3333 60.6667C70.2778 60.7222 70.2222 61.7778 70.6667 61.3333C70.7223 61.2777 70.7777 60.2223 70.3333 60.6667z"/>
<path style="fill:#a6a6a6; stroke:none;" d="M154.333 60.6667C154.278 60.7222 154.222 61.7778 154.667 61.3333C154.722 61.2777 154.778 60.2223 154.333 60.6667z"/>
<path style="fill:#b8b8b8; stroke:none;" d="M160 60L161 61L160 60M190 60L191 61L190 60z"/>
<path style="fill:#6b6b6b; stroke:none;" d="M39 61L40 62L39 61z"/>
<path style="fill:#e2e2e2; stroke:none;" d="M40 61C43.6975 62.5515 48.0168 62 52 62C48.3025 60.4485 43.9832 61 40 61z"/>
<path style="fill:#464646; stroke:none;" d="M52 61L53 62L52 61z"/>
<path style="fill:#767676; stroke:none;" d="M63 61L64 62L63 61z"/>
<path style="fill:#373737; stroke:none;" d="M76 61L77 62L76 61M148 61L149 62L148 61z"/>
<path style="fill:#707070; stroke:none;" d="M161 61L162 62L161 61z"/>
<path style="fill:#464646; stroke:none;" d="M172 61L173 62L172 61z"/>
<path style="fill:#e2e2e2; stroke:none;" d="M173 61C176.697 62.5515 181.017 62 185 62C181.303 60.4485 176.983 61 173 61z"/>
<path style="fill:#6b6b6b; stroke:none;" d="M185 61L186 62L185 61z"/>
<path style="fill:#b8b8b8; stroke:none;" d="M33 62C33.5451 63.6351 33.3648 63.4549 35 64C34.4549 62.3648 34.6352 62.5451 33 62z"/>
<path style="fill:#707070; stroke:none;" d="M36 62L37 63L36 62z"/>
<path style="fill:#c6c6c6; stroke:none;" d="M37 62L38 63L37 62z"/>
<path style="fill:#6b6b6b; stroke:none;" d="M70 62L70 67C70.8299 64.9695 70.8299 64.0305 70 62z"/>
<path style="fill:#767676; stroke:none;" d="M76 62L77 63L76 62z"/>
<path style="fill:#707070; stroke:none;" d="M148 62L149 63L148 62z"/>
<path style="fill:#767676; stroke:none;" d="M154 62L154 68C154.951 65.7147 154.951 64.2853 154 62z"/>
<path style="fill:#cdcdcd; stroke:none;" d="M162 62L163 63L162 62z"/>
<path style="fill:#c6c6c6; stroke:none;" d="M187 62L188 63L187 62z"/>
<path style="fill:#707070; stroke:none;" d="M188 62L189 63L188 62z"/>
<path style="fill:#c6c6c6; stroke:none;" d="M191 62L192 63L191 62z"/>
<path style="fill:#767676; stroke:none;" d="M33 63L34 64L33 63z"/>
<path style="fill:#7e7e7e; stroke:none;" d="M51 63L52 64L51 63M60 63L61 64L60 63z"/>
<path style="fill:#bebebe; stroke:none;" d="M76.3333 63.6667C76.2778 63.7222 76.2222 64.7778 76.6667 64.3333C76.7223 64.2777 76.7777 63.2223 76.3333 63.6667z"/>
<path style="fill:#b8b8b8; stroke:none;" d="M148.333 63.6667C148.278 63.7222 148.222 64.7778 148.667 64.3333C148.722 64.2778 148.778 63.2222 148.333 63.6667z"/>
<path style="fill:#6b6b6b; stroke:none;" d="M164 63L165 64L164 63z"/>
<path style="fill:#828282; stroke:none;" d="M173 63L174 64L173 63z"/>
<path style="fill:#b8b8b8; stroke:none;" d="M190 63L191 64L190 63z"/>
<path style="fill:#7f7f7f; stroke:none;" d="M191 63L192 64L191 63z"/>
<path style="fill:#a6a6a6; stroke:none;" d="M59 64L60 65L59 64z"/>
<path style="fill:#9c9c9c; stroke:none;" d="M165 64L166 65L165 64z"/>
<path style="fill:#303030; stroke:none;" d="M50 65L51 66L50 65z"/>
<path style="fill:#acacac; stroke:none;" d="M58 65L59 66L58 65z"/>
<path style="fill:#efefef; stroke:none;" d="M76 65L76 75C77.3457 71.793 77.3457 68.207 76 65z"/>
<path style="fill:#acacac; stroke:none;" d="M88 65L89 66L88 65z"/>
<path style="fill:#464646; stroke:none;" d="M89.6667 65.3333C89.2222 65.7778 90.2778 65.7222 90.3333 65.6667C90.7778 65.2222 89.7222 65.2778 89.6667 65.3333z"/>
<path style="fill:#000000; stroke:none;" d="M91 65.483C76.1348 67.9949 72.9194 89.8023 87.0008 95.9105C92.692 98.3792 100.396 97.1397 104.787 92.7863C106.984 90.6078 109.117 84.3877 112.938 84.9213C116.339 85.3961 118.025 90.6173 120.213 92.7863C124.248 96.7863 130.55 97.9385 136 96.581C150.05 93.0816 150.613 72.3642 137.999 66.6528C131.763 63.8291 124.207 65.3147 119.532 70.3295C117.537 72.4697 115.739 78.3973 112.078 77.963C108.858 77.581 107.42 72.4234 105.468 70.3295C101.907 66.5103 96.1371 64.6149 91 65.483z"/>
<path style="fill:#6b6b6b; stroke:none;" d="M96.6667 65.3333C96.2222 65.7778 97.2778 65.7222 97.3333 65.6667C97.7778 65.2222 96.7222 65.2778 96.6667 65.3333z"/>
<path style="fill:#a6a6a6; stroke:none;" d="M98 65L99 66L98 65z"/>
<path style="fill:#acacac; stroke:none;" d="M126 65L127 66L126 65z"/>
<path style="fill:#707070; stroke:none;" d="M127 65L128 66L127 65z"/>
<path style="fill:#464646; stroke:none;" d="M134 65L135 66L134 65z"/>
<path style="fill:#828282; stroke:none;" d="M135 65L136 66L135 65z"/>
<path style="fill:#d1d1d1; stroke:none;" d="M136 65L137 66L136 65z"/>
<path style="fill:#efefef; stroke:none;" d="M148 65L148 75C149.346 71.793 149.346 68.207 148 65z"/>
<path style="fill:#acacac; stroke:none;" d="M166 65L167 66L166 65z"/>
<path style="fill:#373737; stroke:none;" d="M174 65L175 66L174 65z"/>
<path style="fill:#acacac; stroke:none;" d="M49 66L50 67L49 66z"/>
<path style="fill:#8e8e8e; stroke:none;" d="M57 66L58 67L57 66z"/>
<path style="fill:#828282; stroke:none;" d="M86 66L87 67L86 66z"/>
<path style="fill:#707070; stroke:none;" d="M100 66L101 67L100 66z"/>
<path style="fill:#767676; stroke:none;" d="M124 66L125 67L124 66z"/>
<path style="fill:#9c9c9c; stroke:none;" d="M138 66L139 67L138 66z"/>
<path style="fill:#969696; stroke:none;" d="M167 66L168 67L167 66z"/>
<path style="fill:#acacac; stroke:none;" d="M175 66L176 67L175 66z"/>
<path style="fill:#535353; stroke:none;" d="M56 67L57 68L56 67z"/>
<path style="fill:#2c2c2c; stroke:none;" d="M70 67L71 68L70 67z"/>
<path style="fill:#acacac; stroke:none;" d="M84 67L85 68L84 67z"/>
<path style="fill:#969696; stroke:none;" d="M102 67L103 68L102 67z"/>
<path style="fill:#8e8e8e; stroke:none;" d="M122 67L123 68L122 67z"/>
<path style="fill:#bebebe; stroke:none;" d="M140 67L141 68L140 67z"/>
<path style="fill:#4b4b4b; stroke:none;" d="M168 67L169 68L168 67z"/>
<path style="fill:#a6a6a6; stroke:none;" d="M48 68L49 69L48 68z"/>
<path style="fill:#bebebe; stroke:none;" d="M63 68L64 69L63 68z"/>
<path style="fill:#7e7e7e; stroke:none;" d="M64 68L65 69L64 68z"/>
<path style="fill:#303030; stroke:none;" d="M65 68L66 69L65 68z"/>
<path style="fill:#606060; stroke:none;" d="M83 68L84 69L83 68z"/>
<path style="fill:#4b4b4b; stroke:none;" d="M103 68L104 69L103 68z"/>
<path style="fill:#303030; stroke:none;" d="M121 68L122 69L121 68z"/>
<path style="fill:#707070; stroke:none;" d="M141 68L142 69L141 68z"/>
<path style="fill:#585858; stroke:none;" d="M159 68L160 69L159 68z"/>
<path style="fill:#898989; stroke:none;" d="M160 68L161 69L160 68z"/>
<path style="fill:#c6c6c6; stroke:none;" d="M161 68L162 69L161 68z"/>
<path style="fill:#a6a6a6; stroke:none;" d="M176 68L177 69L176 68z"/>
<path style="fill:#acacac; stroke:none;" d="M55 69L56 70L55 69z"/>
<path style="fill:#7e7e7e; stroke:none;" d="M61 69L62 70L61 69z"/>
<path style="fill:#3c3c3c; stroke:none;" d="M82 69L83 70L82 69z"/>
<path style="fill:#4b4b4b; stroke:none;" d="M142 69L143 70L142 69z"/>
<path style="fill:#7e7e7e; stroke:none;" d="M163 69L164 70L163 69z"/>
<path style="fill:#8e8e8e; stroke:none;" d="M169 69L170 70L169 69z"/>
<path style="fill:#c6c6c6; stroke:none;" d="M47 70L48 71L47 70z"/>
<path style="fill:#767676; stroke:none;" d="M59 70L60 71L59 70z"/>
<path style="fill:#4b4b4b; stroke:none;" d="M81 70L82 71L81 70z"/>
<path style="fill:#6b6b6b; stroke:none;" d="M92 70C93.2484 70.6848 93.5484 70.7488 95 71C93.7517 70.3152 93.4515 70.2512 92 70M130 70C131.248 70.6848 131.549 70.7488 133 71C131.752 70.3152 131.452 70.2512 130 70z"/>
<path style="fill:#303030; stroke:none;" d="M133 70L134 71L133 70z"/>
<path style="fill:#3c3c3c; stroke:none;" d="M143 70L144 71L143 70z"/>
<path style="fill:#606060; stroke:none;" d="M165 70L166 71L165 70z"/>
<path style="fill:#d1d1d1; stroke:none;" d="M177 70L178 71L177 70z"/>
<path style="fill:#767676; stroke:none;" d="M47 71L48 72L47 71z"/>
<path style="fill:#acacac; stroke:none;" d="M54 71L55 72L54 71M57 71L58 72L57 71z"/>
<path style="fill:#828282; stroke:none;" d="M80 71L81 72L80 71z"/>
<path style="fill:#8e8e8e; stroke:none;" d="M89 71L90 72L89 71z"/>
<path style="fill:#ffffff; stroke:none;" d="M90.0046 71.7431C77.9204 76.3835 85.1984 95.3311 97.9815 90.2577C109.775 85.5771 101.838 67.1991 90.0046 71.7431z"/>
<path style="fill:#a6a6a6; stroke:none;" d="M97 71L98 72L97 71z"/>
<path style="fill:#4e4e4e; stroke:none;" d="M106 71L107 72L106 71z"/>
<path style="fill:#585858; stroke:none;" d="M118 71L119 72L118 71z"/>
<path style="fill:#9c9c9c; stroke:none;" d="M127 71L128 72L127 71z"/>
<path style="fill:#ffffff; stroke:none;" d="M128.004 71.7431C114.897 76.7506 123.178 95.4595 135.956 90.2577C146.638 85.9091 139.427 67.3787 128.004 71.7431z"/>
<path style="fill:#898989; stroke:none;" d="M135 71L136 72L135 71z"/>
<path style="fill:#7e7e7e; stroke:none;" d="M144 71L145 72L144 71z"/>
<path style="fill:#9c9c9c; stroke:none;" d="M167 71L168 72L167 71z"/>
<path style="fill:#acacac; stroke:none;" d="M170 71L171 72L170 71z"/>
<path style="fill:#828282; stroke:none;" d="M177 71L178 72L177 71z"/>
<path style="fill:#464646; stroke:none;" d="M56 72L57 73L56 72z"/>
<path style="fill:#d1d1d1; stroke:none;" d="M79 72L80 73L79 72z"/>
<path style="fill:#656565; stroke:none;" d="M87 72L88 73L87 72z"/>
<path style="fill:#969696; stroke:none;" d="M99 72L100 73L99 72z"/>
<path style="fill:#9c9c9c; stroke:none;" d="M107 72L108 73L107 72z"/>
<path style="fill:#acacac; stroke:none;" d="M117 72L118 73L117 72z"/>
<path style="fill:#898989; stroke:none;" d="M125 72L126 73L125 72z"/>
<path style="fill:#535353; stroke:none;" d="M137 72L138 73L137 72z"/>
<path style="fill:#cdcdcd; stroke:none;" d="M145 72L146 73L145 72z"/>
<path style="fill:#464646; stroke:none;" d="M168 72L169 73L168 72z"/>
<path style="fill:#a6a6a6; stroke:none;" d="M53.6667 73.3333C53.2223 73.7778 54.2778 73.7222 54.3333 73.6667C54.7778 73.2222 53.7222 73.2778 53.6667 73.3333z"/>
<path style="fill:#303030; stroke:none;" d="M79 73L80 74L79 73z"/>
<path style="fill:#969696; stroke:none;" d="M86 73L87 74L86 73z"/>
<path style="fill:#c6c6c6; stroke:none;" d="M124 73L125 74L124 73z"/>
<path style="fill:#898989; stroke:none;" d="M138 73L139 74L138 73z"/>
<path style="fill:#303030; stroke:none;" d="M145 73L146 74L145 73z"/>
<path style="fill:#c6c6c6; stroke:none;" d="M170 73L171 74L170 73z"/>
<path style="fill:#969696; stroke:none;" d="M171 73L172 74L171 73M46.3333 74.6667C46.2777 74.7223 46.2222 75.7777 46.6667 75.3333C46.7222 75.2778 46.7778 74.2222 46.3333 74.6667z"/>
<path style="fill:#535353; stroke:none;" d="M68 74C69.769 74.7789 71.0359 74.9124 73 75C71.231 74.2211 69.9641 74.0876 68 74z"/>
<path style="fill:#c6c6c6; stroke:none;" d="M78 74L79 75L78 74z"/>
<path style="fill:#898989; stroke:none;" d="M85 74L86 75L85 74z"/>
<path style="fill:#767676; stroke:none;" d="M108 74L109 75L108 74z"/>
<path style="fill:#7e7e7e; stroke:none;" d="M116 74L117 75L116 74z"/>
<path style="fill:#cdcdcd; stroke:none;" d="M123 74L124 75L123 74z"/>
<path style="fill:#828282; stroke:none;" d="M139 74L140 75L139 74z"/>
<path style="fill:#c6c6c6; stroke:none;" d="M146 74L147 75L146 74z"/>
<path style="fill:#535353; stroke:none;" d="M152 74C153.769 74.7789 155.036 74.9124 157 75C155.231 74.2211 153.964 74.0876 152 74z"/>
<path style="fill:#969696; stroke:none;" d="M178 74L178 77C178.696 75.4463 178.696 75.5537 178 74z"/>
<path style="fill:#9c9c9c; stroke:none;" d="M65 75L66 76L65 75z"/>
<path style="fill:#535353; stroke:none;" d="M78 75L79 76L78 75z"/>
<path style="fill:#3c3c3c; stroke:none;" d="M84 75L85 76L84 75z"/>
<path style="fill:#9c9c9c; stroke:none;" d="M102 75L103 76L102 75M122 75L123 76L122 75z"/>
<path style="fill:#373737; stroke:none;" d="M140 75L141 76L140 75z"/>
<path style="fill:#585858; stroke:none;" d="M146 75L147 76L146 75z"/>
<path style="fill:#9c9c9c; stroke:none;" d="M159 75L160 76L159 75z"/>
<path style="fill:#6b6b6b; stroke:none;" d="M46 76L47 77L46 76z"/>
<path style="fill:#4b4b4b; stroke:none;" d="M63 76L64 77L63 76z"/>
<path style="fill:#b8b8b8; stroke:none;" d="M109 76L110 77L109 76z"/>
<path style="fill:#969696; stroke:none;" d="M115 76L116 77L115 76z"/>
<path style="fill:#d1d1d1; stroke:none;" d="M140 76L141 77L140 76z"/>
<path style="fill:#464646; stroke:none;" d="M161 76L162 77L161 76z"/>
<path style="fill:#2a2a2a; stroke:none;" d="M46.3333 77.6667C46.2778 77.7222 46.2222 78.7778 46.6667 78.3333C46.7222 78.2778 46.7778 77.2222 46.3333 77.6667z"/>
<path style="fill:#464646; stroke:none;" d="M62 77L63 78L62 77z"/>
<path style="fill:#bebebe; stroke:none;" d="M77 77L78 78L77 77z"/>
<path style="fill:#464646; stroke:none;" d="M83 77L84 78L83 77z"/>
<path style="fill:#8e8e8e; stroke:none;" d="M103 77L104 78L103 77z"/>
<path style="fill:#606060; stroke:none;" d="M109 77L110 78L109 77z"/>
<path style="fill:#2c2c2c; stroke:none;" d="M115 77L116 78L115 77z"/>
<path style="fill:#acacac; stroke:none;" d="M121 77L122 78L121 77z"/>
<path style="fill:#303030; stroke:none;" d="M141 77L142 78L141 77z"/>
<path style="fill:#a6a6a6; stroke:none;" d="M147.333 77.6667C147.278 77.7222 147.222 78.7778 147.667 78.3333C147.722 78.2777 147.778 77.2223 147.333 77.6667z"/>
<path style="fill:#3c3c3c; stroke:none;" d="M162 77L163 78L162 77z"/>
<path style="fill:#303030; stroke:none;" d="M178.333 77.6667C178.278 77.7222 178.222 78.7778 178.667 78.3333C178.722 78.2777 178.778 77.2223 178.333 77.6667z"/>
<path style="fill:#6b6b6b; stroke:none;" d="M77.3333 78.6667C77.2778 78.7222 77.2222 79.7778 77.6667 79.3333C77.7222 79.2778 77.7777 78.2223 77.3333 78.6667z"/>
<path style="fill:#a6a6a6; stroke:none;" d="M83 78L84 79L83 78z"/>
<path style="fill:#535353; stroke:none;" d="M110 78C111.506 78.683 112.315 78.8259 114 79C112.494 78.317 111.685 78.1741 110 78z"/>
<path style="fill:#969696; stroke:none;" d="M141 78L142 79L141 78z"/>
<path style="fill:#6b6b6b; stroke:none;" d="M61 79L62 80L61 79z"/>
<path style="fill:#e8e8e8; stroke:none;" d="M83 79L83 83C83.7102 81.2405 83.7102 80.7595 83 79z"/>
<path style="fill:#dddddd; stroke:none;" d="M141 79L141 84C141.83 81.9695 141.83 81.0305 141 79z"/>
<path style="fill:#767676; stroke:none;" d="M147 79L147 84C147.83 81.9695 147.83 81.0305 147 79z"/>
<path style="fill:#656565; stroke:none;" d="M163 79L164 80L163 79z"/>
<path style="fill:#f2f2f2; stroke:none;" d="M45 80L45 92C46.5124 88.3957 46.5124 83.6043 45 80z"/>
<path style="fill:#d1d1d1; stroke:none;" d="M61 80L61 85C61.8299 82.9695 61.8299 82.0305 61 80z"/>
<path style="fill:#464646; stroke:none;" d="M77 80L77 83C77.6961 81.4463 77.6961 81.5537 77 80z"/>
<path style="fill:#d1d1d1; stroke:none;" d="M163 80L163 85C163.83 82.9695 163.83 82.0305 163 80z"/>
<path style="fill:#e8e8e8; stroke:none;" d="M54 83C54.0313 84.8318 53.9205 84.5587 55 86C54.7488 84.5484 54.6848 84.2483 54 83z"/>
<path style="fill:#9c9c9c; stroke:none;" d="M77.3333 83.6667C77.2778 83.7222 77.2222 84.7778 77.6667 84.3333C77.7223 84.2777 77.7778 83.2223 77.3333 83.6667z"/>
<path style="fill:#b8b8b8; stroke:none;" d="M83 83L84 84L83 83z"/>
<path style="fill:#ebebeb; stroke:none;" d="M170 83L170 86L172 85C171.455 83.3648 171.635 83.5451 170 83z"/>
<path style="fill:#707070; stroke:none;" d="M83 84L84 85L83 84z"/>
<path style="fill:#b8b8b8; stroke:none;" d="M103 84L104 85L103 84M121 84L122 85L121 84z"/>
<path style="fill:#767676; stroke:none;" d="M141 84L142 85L141 84z"/>
<path style="fill:#b8b8b8; stroke:none;" d="M147 84L148 85L147 84z"/>
<path style="fill:#a6a6a6; stroke:none;" d="M52 85L53 86L52 85z"/>
<path style="fill:#9c9c9c; stroke:none;" d="M61 85L62 86L61 85z"/>
<path style="fill:#d1d1d1; stroke:none;" d="M77 85L78 86L77 85z"/>
<path style="fill:#535353; stroke:none;" d="M103 85L104 86L103 85z"/>
<path style="fill:#7e7e7e; stroke:none;" d="M109 85L110 86L109 85z"/>
<path style="fill:#6b6b6b; stroke:none;" d="M115 85L116 86L115 85z"/>
<path style="fill:#4e4e4e; stroke:none;" d="M121 85L122 86L121 85z"/>
<path style="fill:#9c9c9c; stroke:none;" d="M163 85L164 86L163 85z"/>
<path style="fill:#a6a6a6; stroke:none;" d="M172 85L173 86L172 85z"/>
<path style="fill:#606060; stroke:none;" d="M51 86L52 87L51 86z"/>
<path style="fill:#6b6b6b; stroke:none;" d="M61 86L62 87L61 86z"/>
<path style="fill:#8e8e8e; stroke:none;" d="M84 86L85 87L84 86z"/>
<path style="fill:#a6a6a6; stroke:none;" d="M140 86L141 87L140 86z"/>
<path style="fill:#6b6b6b; stroke:none;" d="M163 86L164 87L163 86z"/>
<path style="fill:#606060; stroke:none;" d="M173 86L174 87L173 86z"/>
<path style="fill:#4e4e4e; stroke:none;" d="M55 87L56 88L55 87z"/>
<path style="fill:#7e7e7e; stroke:none;" d="M78 87L79 88L78 87z"/>
<path style="fill:#3c3c3c; stroke:none;" d="M108 87L109 88L108 87z"/>
<path style="fill:#4b4b4b; stroke:none;" d="M116 87L117 88L116 87z"/>
<path style="fill:#303030; stroke:none;" d="M122 87L123 88L122 87z"/>
<path style="fill:#969696; stroke:none;" d="M146 87L147 88L146 87z"/>
<path style="fill:#4e4e4e; stroke:none;" d="M169 87L170 88L169 87z"/>
<path style="fill:#8e8e8e; stroke:none;" d="M55 88L56 89L55 88z"/>
<path style="fill:#656565; stroke:none;" d="M101 88L102 89L101 88z"/>
<path style="fill:#bebebe; stroke:none;" d="M108 88L109 89L108 88z"/>
<path style="fill:#d1d1d1; stroke:none;" d="M116 88L117 89L116 88z"/>
<path style="fill:#6b6b6b; stroke:none;" d="M123 88L124 89L123 88z"/>
<path style="fill:#898989; stroke:none;" d="M169 88L170 89L169 88z"/>
<path style="fill:#d1d1d1; stroke:none;" d="M174 88L175 89L174 88z"/>
<path style="fill:#969696; stroke:none;" d="M49 89L50 90L49 89z"/>
<path style="fill:#c6c6c6; stroke:none;" d="M55 89L56 90L55 89z"/>
<path style="fill:#acacac; stroke:none;" d="M62 89L63 90L62 89z"/>
<path style="fill:#767676; stroke:none;" d="M79 89L80 90L79 89z"/>
<path style="fill:#303030; stroke:none;" d="M86 89L87 90L86 89z"/>
<path style="fill:#606060; stroke:none;" d="M100 89L101 90L100 89z"/>
<path style="fill:#3c3c3c; stroke:none;" d="M107 89L108 90L107 89z"/>
<path style="fill:#585858; stroke:none;" d="M117 89L118 90L117 89z"/>
<path style="fill:#707070; stroke:none;" d="M124 89L125 90L124 89z"/>
<path style="fill:#828282; stroke:none;" d="M145 89L146 90L145 89z"/>
<path style="fill:#acacac; stroke:none;" d="M162 89L163 90L162 89z"/>
<path style="fill:#bebebe; stroke:none;" d="M169 89L170 90L169 89z"/>
<path style="fill:#969696; stroke:none;" d="M175 89L176 90L175 89z"/>
<path style="fill:#464646; stroke:none;" d="M48 90L49 91L48 90z"/>
<path style="fill:#4e4e4e; stroke:none;" d="M62 90L63 91L62 90z"/>
<path style="fill:#a6a6a6; stroke:none;" d="M88 90L89 91L88 90z"/>
<path style="fill:#acacac; stroke:none;" d="M98 90L99 91L98 90z"/>
<path style="fill:#c6c6c6; stroke:none;" d="M126 90L127 91L126 90z"/>
<path style="fill:#969696; stroke:none;" d="M136 90L137 91L136 90z"/>
<path style="fill:#4e4e4e; stroke:none;" d="M162 90L163 91L162 90z"/>
<path style="fill:#464646; stroke:none;" d="M176 90L177 91L176 90M56 91L57 92L56 91z"/>
<path style="fill:#828282; stroke:none;" d="M90 91L91 92L90 91z"/>
<path style="fill:#dadada; stroke:none;" d="M91 91C92.769 91.7789 94.0359 91.9124 96 92C94.231 91.2211 92.9641 91.0876 91 91z"/>
<path style="fill:#767676; stroke:none;" d="M96 91L97 92L96 91z"/>
<path style="fill:#bebebe; stroke:none;" d="M106 91L107 92L106 91z"/>
<path style="fill:#b8b8b8; stroke:none;" d="M118 91L119 92L118 91z"/>
<path style="fill:#373737; stroke:none;" d="M127 91L128 92L127 91z"/>
<path style="fill:#9c9c9c; stroke:none;" d="M128 91L129 92L128 91z"/>
<path style="fill:#dadada; stroke:none;" d="M129 91C130.769 91.7789 132.036 91.9124 134 92C132.231 91.2211 130.964 91.0876 129 91z"/>
<path style="fill:#767676; stroke:none;" d="M134 91L135 92L134 91z"/>
<path style="fill:#373737; stroke:none;" d="M168 91L169 92L168 91z"/>
<path style="fill:#acacac; stroke:none;" d="M47 92L48 93L47 92z"/>
<path style="fill:#a6a6a6; stroke:none;" d="M56 92L57 93L56 92M63 92L64 93L63 92z"/>
<path style="fill:#d1d1d1; stroke:none;" d="M81 92L82 93L81 92z"/>
<path style="fill:#9c9c9c; stroke:none;" d="M105 92L106 93L105 92z"/>
<path style="fill:#898989; stroke:none;" d="M119 92L120 93L119 92z"/>
<path style="fill:#c6c6c6; stroke:none;" d="M143 92L144 93L143 92z"/>
<path style="fill:#a6a6a6; stroke:none;" d="M161 92L162 93L161 92z"/>
<path style="fill:#9c9c9c; stroke:none;" d="M168 92L169 93L168 92z"/>
<path style="fill:#acacac; stroke:none;" d="M177 92L178 93L177 92z"/>
<path style="fill:#606060; stroke:none;" d="M46 93L47 94L46 93z"/>
<path style="fill:#303030; stroke:none;" d="M63 93L64 94L63 93z"/>
<path style="fill:#d1d1d1; stroke:none;" d="M82 93L83 94L82 93z"/>
<path style="fill:#a6a6a6; stroke:none;" d="M104 93L105 94L104 93z"/>
<path style="fill:#898989; stroke:none;" d="M120 93L121 94L120 93z"/>
<path style="fill:#cdcdcd; stroke:none;" d="M142 93L143 94L142 93z"/>
<path style="fill:#2c2c2c; stroke:none;" d="M161 93L162 94L161 93z"/>
<path style="fill:#606060; stroke:none;" d="M178 93L179 94L178 93z"/>
<path style="fill:#464646; stroke:none;" d="M57 94L58 95L57 94z"/>
<path style="fill:#cdcdcd; stroke:none;" d="M64 94L65 95L64 94z"/>
<path style="fill:#373737; stroke:none;" d="M84 94L85 95L84 94z"/>
<path style="fill:#c6c6c6; stroke:none;" d="M103 94L104 95L103 94z"/>
<path style="fill:#b8b8b8; stroke:none;" d="M121 94L122 95L121 94z"/>
<path style="fill:#3c3c3c; stroke:none;" d="M140 94L141 95L140 94z"/>
<path style="fill:#c6c6c6; stroke:none;" d="M160 94L161 95L160 94z"/>
<path style="fill:#464646; stroke:none;" d="M167 94L168 95L167 94z"/>
<path style="fill:#b8b8b8; stroke:none;" d="M57 95L58 96L57 95z"/>
<path style="fill:#303030; stroke:none;" d="M64 95L65 96L64 95z"/>
<path style="fill:#8e8e8e; stroke:none;" d="M85 95L86 96L85 95z"/>
<path style="fill:#656565; stroke:none;" d="M101 95L102 96L101 95z"/>
<path style="fill:#606060; stroke:none;" d="M123 95L124 96L123 95z"/>
<path style="fill:#acacac; stroke:none;" d="M139 95L140 96L139 95z"/>
<path style="fill:#303030; stroke:none;" d="M160 95L161 96L160 95z"/>
<path style="fill:#b8b8b8; stroke:none;" d="M167 95L168 96L167 95z"/>
<path style="fill:#acacac; stroke:none;" d="M65 96L66 97L65 96z"/>
<path style="fill:#969696; stroke:none;" d="M87 96L88 97L87 96z"/>
<path style="fill:#767676; stroke:none;" d="M99 96L100 97L99 96z"/>
<path style="fill:#7e7e7e; stroke:none;" d="M125 96L126 97L125 96z"/>
<path style="fill:#9c9c9c; stroke:none;" d="M137 96L138 97L137 96z"/>
<path style="fill:#a6a6a6; stroke:none;" d="M159 96L160 97L159 96z"/>
<path style="fill:#8e8e8e; stroke:none;" d="M58 97L59 98L58 97z"/>
<path style="fill:#969696; stroke:none;" d="M90 97C92.3316 97.9845 94.4566 97.9813 97 98C94.6684 97.0155 92.5433 97.0187 90 97z"/>
<path style="fill:#cdcdcd; stroke:none;" d="M97 97L98 98L97 97z"/>
<path style="fill:#a6a6a6; stroke:none;" d="M127 97C128.248 97.6848 128.548 97.7488 130 98C128.752 97.3152 128.452 97.2512 127 97z"/>
<path style="fill:#8e8e8e; stroke:none;" d="M130 97C131.769 97.7789 133.036 97.9124 135 98C133.231 97.2211 131.964 97.0876 130 97z"/>
<path style="fill:#cdcdcd; stroke:none;" d="M135 97L136 98L135 97z"/>
<path style="fill:#a6a6a6; stroke:none;" d="M166 97L167 98L166 97z"/>
<path style="fill:#d1d1d1; stroke:none;" d="M67 98L68 99L67 98M157 98L158 99L157 98z"/>
<path style="fill:#acacac; stroke:none;" d="M59 99L60 100L59 99z"/>
<path style="fill:#585858; stroke:none;" d="M68 99L69 100L68 99z"/>
<path style="fill:#b8b8b8; stroke:none;" d="M69.6667 99.3333C69.2222 99.7778 70.2778 99.7222 70.3333 99.6667C70.7778 99.2222 69.7222 99.2778 69.6667 99.3333z"/>
<path style="fill:#a6a6a6; stroke:none;" d="M154.667 99.3333C154.222 99.7777 155.278 99.7223 155.333 99.6667C155.778 99.2222 154.722 99.2778 154.667 99.3333z"/>
<path style="fill:#585858; stroke:none;" d="M156 99L157 100L156 99z"/>
<path style="fill:#c6c6c6; stroke:none;" d="M165 99L166 100L165 99z"/>
<path style="fill:#4b4b4b; stroke:none;" d="M60 100L61 101L60 100z"/>
<path style="fill:#3c3c3c; stroke:none;" d="M71 100L72 101L71 100M153 100L154 101L153 100z"/>
<path style="fill:#6b6b6b; stroke:none;" d="M164 100L165 101L164 100z"/>
<path style="fill:#9c9c9c; stroke:none;" d="M72 102L73 103L72 102z"/>
<path style="fill:#969696; stroke:none;" d="M152 102L153 103L152 102z"/>
<path style="fill:#4e4e4e; stroke:none;" d="M72 103L73 104L72 103z"/>
<path style="fill:#464646; stroke:none;" d="M152 103L153 104L152 103z"/>
<path style="fill:#7e7e7e; stroke:none;" d="M64 104L65 105L64 104z"/>
<path style="fill:#767676; stroke:none;" d="M160 104L161 105L160 104z"/>
<path style="fill:#d1d1d1; stroke:none;" d="M65 105L66 106L65 105z"/>
<path style="fill:#c6c6c6; stroke:none;" d="M73 105L74 106L73 105z"/>
<path style="fill:#bebebe; stroke:none;" d="M151 105L152 106L151 105z"/>
<path style="fill:#a6a6a6; stroke:none;" d="M66 106L67 107L66 106z"/>
<path style="fill:#7e7e7e; stroke:none;" d="M73 106L74 107L73 106M151 106L152 107L151 106z"/>
<path style="fill:#a6a6a6; stroke:none;" d="M158 106L159 107L158 106z"/>
<path style="fill:#9c9c9c; stroke:none;" d="M99 107C100.248 107.685 100.548 107.749 102 108C100.752 107.315 100.452 107.251 99 107z"/>
<path style="fill:#7e7e7e; stroke:none;" d="M102 107C103.248 107.685 103.548 107.749 105 108C103.752 107.315 103.452 107.251 102 107z"/>
<path style="fill:#606060; stroke:none;" d="M105 107C108.959 108.661 113.737 108 118 108C114.041 106.339 109.263 107 105 107z"/>
<path style="fill:#7e7e7e; stroke:none;" d="M118 107C119.506 107.683 120.315 107.826 122 108C120.494 107.317 119.685 107.174 118 107z"/>
<path style="fill:#9c9c9c; stroke:none;" d="M122 107C123.248 107.685 123.548 107.749 125 108C123.752 107.315 123.452 107.251 122 107z"/>
<path style="fill:#707070; stroke:none;" d="M67 108L68 109L67 108z"/>
<path style="fill:#d1d1d1; stroke:none;" d="M74 108L75 109L74 108z"/>
<path style="fill:#9c9c9c; stroke:none;" d="M96 108L97 109L96 108z"/>
<path style="fill:#000000; stroke:none;" d="M88 121L116 120L137 121C135.353 117.046 133.572 112.262 129.895 109.742C125.844 106.966 119.653 108 115 108C109.17 108 100.154 106.323 95.0941 109.742C91.3027 112.305 89.6058 116.926 88 121z"/>
<path style="fill:#8e8e8e; stroke:none;" d="M128 108L129 109L128 108z"/>
<path style="fill:#d1d1d1; stroke:none;" d="M150 108L151 109L150 108z"/>
<path style="fill:#767676; stroke:none;" d="M157 108L158 109L157 108z"/>
<path style="fill:#c6c6c6; stroke:none;" d="M67 109L68 110L67 109z"/>
<path style="fill:#828282; stroke:none;" d="M74 109L75 110L74 109z"/>
<path style="fill:#8e8e8e; stroke:none;" d="M150 109L151 110L150 109z"/>
<path style="fill:#c6c6c6; stroke:none;" d="M157 109L158 110L157 109M131 110L132 111L131 110z"/>
<path style="fill:#767676; stroke:none;" d="M68 111L69 112L68 111z"/>
<path style="fill:#cdcdcd; stroke:none;" d="M75 111L76 112L75 111z"/>
<path style="fill:#d1d1d1; stroke:none;" d="M149 111L150 112L149 111z"/>
<path style="fill:#767676; stroke:none;" d="M156 111L157 112L156 111z"/>
<path style="fill:#c6c6c6; stroke:none;" d="M68 112L69 113L68 112z"/>
<path style="fill:#656565; stroke:none;" d="M75 112L76 113L75 112z"/>
<path style="fill:#707070; stroke:none;" d="M149 112L150 113L149 112z"/>
<path style="fill:#cdcdcd; stroke:none;" d="M156 112L157 113L156 112z"/>
<path style="fill:#6b6b6b; stroke:none;" d="M91 113L92 114L91 113z"/>
<path style="fill:#7e7e7e; stroke:none;" d="M133 113L134 114L133 113z"/>
<path style="fill:#8e8e8e; stroke:none;" d="M69 114L70 115L69 114z"/>
<path style="fill:#a6a6a6; stroke:none;" d="M76 114L77 115L76 114z"/>
<path style="fill:#cdcdcd; stroke:none;" d="M90 114L91 115L90 114z"/>
<path style="fill:#a6a6a6; stroke:none;" d="M148 114L149 115L148 114z"/>
<path style="fill:#969696; stroke:none;" d="M155 114L156 115L155 114z"/>
<path style="fill:#4e4e4e; stroke:none;" d="M134 115L135 116L134 115z"/>
<path style="fill:#535353; stroke:none;" d="M70 116L71 117L70 116z"/>
<path style="fill:#c6c6c6; stroke:none;" d="M77 116L78 117L77 116z"/>
<path style="fill:#bebebe; stroke:none;" d="M89 116L90 117L89 116z"/>
<path style="fill:#d1d1d1; stroke:none;" d="M135 116L136 117L135 116z"/>
<path style="fill:#bebebe; stroke:none;" d="M147 116L148 117L147 116z"/>
<path style="fill:#6b6b6b; stroke:none;" d="M154 116L155 117L154 116z"/>
<path style="fill:#cdcdcd; stroke:none;" d="M70 117L71 118L70 117z"/>
<path style="fill:#464646; stroke:none;" d="M77 117L78 118L77 117z"/>
<path style="fill:#373737; stroke:none;" d="M89 117L90 118L89 117z"/>
<path style="fill:#535353; stroke:none;" d="M135 117L136 118L135 117z"/>
<path style="fill:#303030; stroke:none;" d="M147 117L148 118L147 117M71 118L72 119L71 118z"/>
<path style="fill:#cdcdcd; stroke:none;" d="M78 118L79 119L78 118z"/>
<path style="fill:#d1d1d1; stroke:none;" d="M88 118L89 119L88 118z"/>
<path style="fill:#bebebe; stroke:none;" d="M146 118L147 119L146 118z"/>
<path style="fill:#4e4e4e; stroke:none;" d="M153 118L154 119L153 118z"/>
<path style="fill:#bebebe; stroke:none;" d="M71 119L72 120L71 119z"/>
<path style="fill:#373737; stroke:none;" d="M78 119L79 120L78 119z"/>
<path style="fill:#828282; stroke:none;" d="M88 119L89 120L88 119z"/>
<path style="fill:#8e8e8e; stroke:none;" d="M136 119L137 120L136 119z"/>
<path style="fill:#cdcdcd; stroke:none;" d="M153 119L154 120L153 119z"/>
<path style="fill:#b8b8b8; stroke:none;" d="M79 120L80 121L79 120z"/>
<path style="fill:#535353; stroke:none;" d="M99.6667 120.333C99.2222 120.778 100.278 120.722 100.333 120.667C100.778 120.222 99.7222 120.278 99.6667 120.333z"/>
<path style="fill:#828282; stroke:none;" d="M101 120C102.248 120.685 102.548 120.749 104 121C102.752 120.315 102.452 120.251 101 120z"/>
<path style="fill:#cdcdcd; stroke:none;" d="M104 120C105.506 120.683 106.315 120.826 108 121C106.494 120.317 105.685 120.174 104 120z"/>
<path style="fill:#c6c6c6; stroke:none;" d="M115 120C116.769 120.779 118.036 120.912 120 121C118.231 120.221 116.964 120.088 115 120z"/>
<path style="fill:#969696; stroke:none;" d="M120.667 120.333C120.222 120.778 121.278 120.722 121.333 120.667C121.778 120.222 120.722 120.278 120.667 120.333z"/>
<path style="fill:#707070; stroke:none;" d="M122 120C123.248 120.685 123.548 120.749 125 121C123.752 120.315 123.452 120.251 122 120z"/>
<path style="fill:#acacac; stroke:none;" d="M145 120L146 121L145 120z"/>
<path style="fill:#3c3c3c; stroke:none;" d="M152 120L153 121L152 120z"/>
<path style="fill:#bebebe; stroke:none;" d="M72 121L73 122L72 121z"/>
<path style="fill:#cdcdcd; stroke:none;" d="M88 121C89.7691 121.779 91.0359 121.912 93 122C91.231 121.221 89.964 121.088 88 121z"/>
<path style="fill:#e5e5e5; stroke:none;" d="M93 121C94.2483 121.685 94.5484 121.749 96 122C94.7516 121.315 94.4516 121.251 93 121z"/>
<path style="fill:#e2e2e2; stroke:none;" d="M128 121C129.769 121.779 131.036 121.912 133 122C131.231 121.221 129.964 121.088 128 121z"/>
<path style="fill:#b8b8b8; stroke:none;" d="M133 121C134.506 121.683 135.315 121.826 137 122C135.494 121.317 134.685 121.174 133 121z"/>
<path style="fill:#cdcdcd; stroke:none;" d="M152 121L153 122L152 121z"/>
<path style="fill:#303030; stroke:none;" d="M73 122L74 123L73 122z"/>
<path style="fill:#7e7e7e; stroke:none;" d="M80 122L81 123L80 122z"/>
<path style="fill:#6b6b6b; stroke:none;" d="M144 122L145 123L144 122z"/>
<path style="fill:#4b4b4b; stroke:none;" d="M151 122L152 123L151 122z"/>
<path style="fill:#cdcdcd; stroke:none;" d="M73 123L74 124L73 123z"/>
<path style="fill:#d1d1d1; stroke:none;" d="M81 123L82 124L81 123z"/>
<path style="fill:#bebebe; stroke:none;" d="M143 123L144 124L143 123z"/>
<path style="fill:#535353; stroke:none;" d="M74 124L75 125L74 124z"/>
<path style="fill:#656565; stroke:none;" d="M150 124L151 125L150 124z"/>
<path style="fill:#535353; stroke:none;" d="M82 125L83 126L82 125z"/>
<path style="fill:#464646; stroke:none;" d="M142 125L143 126L142 125z"/>
<path style="fill:#969696; stroke:none;" d="M75 126L76 127L75 126z"/>
<path style="fill:#898989; stroke:none;" d="M83 126L84 127L83 126z"/>
<path style="fill:#7e7e7e; stroke:none;" d="M141 126L142 127L141 126z"/>
<path style="fill:#9c9c9c; stroke:none;" d="M149 126L150 127L149 126z"/>
<path style="fill:#acacac; stroke:none;" d="M84 127L85 128L84 127z"/>
<path style="fill:#a6a6a6; stroke:none;" d="M140 127L141 128L140 127z"/>
<path style="fill:#303030; stroke:none;" d="M148 127L149 128L148 127z"/>
<path style="fill:#b8b8b8; stroke:none;" d="M85 128L86 129L85 128M139 128L140 129L139 128z"/>
<path style="fill:#969696; stroke:none;" d="M77 129L78 130L77 129z"/>
<path style="fill:#b8b8b8; stroke:none;" d="M86 129L87 130L86 129z"/>
<path style="fill:#acacac; stroke:none;" d="M138 129L139 130L138 129M147 129L148 130L147 129z"/>
<path style="fill:#464646; stroke:none;" d="M78 130L79 131L78 130z"/>
<path style="fill:#9c9c9c; stroke:none;" d="M87 130L88 131L87 130z"/>
<path style="fill:#969696; stroke:none;" d="M137 130L138 131L137 130z"/>
<path style="fill:#6b6b6b; stroke:none;" d="M146 130L147 131L146 130z"/>
<path style="fill:#707070; stroke:none;" d="M88 131L89 132L88 131z"/>
<path style="fill:#6b6b6b; stroke:none;" d="M136 131L137 132L136 131z"/>
<path style="fill:#4b4b4b; stroke:none;" d="M145.333 131.667C145.278 131.722 145.222 132.778 145.667 132.333C145.722 132.278 145.778 131.222 145.333 131.667z"/>
<path style="fill:#585858; stroke:none;" d="M79 132L80 133L79 132z"/>
<path style="fill:#acacac; stroke:none;" d="M77 133L78 134L77 133z"/>
<path style="fill:#767676; stroke:none;" d="M91 133L92 134L91 133M133 133L134 134L133 133z"/>
<path style="fill:#acacac; stroke:none;" d="M147 133L148 134L147 133z"/>
<path style="fill:#d1d1d1; stroke:none;" d="M75 134L76 135L75 134z"/>
<path style="fill:#373737; stroke:none;" d="M76 134L77 135L76 134z"/>
<path style="fill:#898989; stroke:none;" d="M93 134L94 135L93 134M131 134L132 135L131 134z"/>
<path style="fill:#3c3c3c; stroke:none;" d="M148 134L149 135L148 134z"/>
<path style="fill:#585858; stroke:none;" d="M74 135L75 136L74 135z"/>
<path style="fill:#535353; stroke:none;" d="M95 135L96 136L95 135z"/>
<path style="fill:#acacac; stroke:none;" d="M96 135L97 136L96 135M128 135L129 136L128 135z"/>
<path style="fill:#4e4e4e; stroke:none;" d="M129 135L130 136L129 135z"/>
<path style="fill:#606060; stroke:none;" d="M150 135L151 136L150 135z"/>
<path style="fill:#d1d1d1; stroke:none;" d="M71 136L72 137L71 136z"/>
<path style="fill:#585858; stroke:none;" d="M72 136L73 137L72 136z"/>
<path style="fill:#464646; stroke:none;" d="M83.6667 136.333C83.2222 136.778 84.2778 136.722 84.3333 136.667C84.7778 136.222 83.7222 136.278 83.6667 136.333z"/>
<path style="fill:#3c3c3c; stroke:none;" d="M99.6667 136.333C99.2222 136.778 100.278 136.722 100.333 136.667C100.778 136.222 99.7222 136.278 99.6667 136.333z"/>
<path style="fill:#656565; stroke:none;" d="M101 136C102.248 136.685 102.548 136.749 104 137C102.752 136.315 102.452 136.251 101 136z"/>
<path style="fill:#969696; stroke:none;" d="M104 136C108.974 138.087 115.638 137 121 137C116.026 134.913 109.362 136 104 136z"/>
<path style="fill:#656565; stroke:none;" d="M121 136C122.248 136.685 122.548 136.749 124 137C122.752 136.315 122.452 136.251 121 136z"/>
<path style="fill:#2a2a2a; stroke:none;" d="M124.667 136.333C124.222 136.778 125.278 136.722 125.333 136.667C125.778 136.222 124.722 136.278 124.667 136.333z"/>
<path style="fill:#656565; stroke:none;" d="M140.667 136.333C140.222 136.778 141.278 136.722 141.333 136.667C141.778 136.222 140.722 136.278 140.667 136.333z"/>
<path style="fill:#6b6b6b; stroke:none;" d="M152 136L153 137L152 136z"/>
<path style="fill:#b8b8b8; stroke:none;" d="M69 137L70 138L69 137z"/>
<path style="fill:#373737; stroke:none;" d="M70 137L71 138L70 137z"/>
<path style="fill:#b8b8b8; stroke:none;" d="M82 137L83 138L82 137z"/>
<path style="fill:#ffffff; stroke:none;" d="M76 141C79.1266 147.035 84.2793 151.896 88.7184 157C96.3467 165.771 103.789 174.766 112 183C121.452 176.337 128.722 165.692 136.282 157C140.669 151.956 146.166 147.085 149 141C146.556 139.868 143.776 137.836 141 137.836C136.356 137.838 131.715 141.887 127 142.674C118.534 144.089 107.519 143.849 99 142.816C93.799 142.185 89.0288 137.911 84 137.812C81.1542 137.756 78.424 139.733 76 141z"/>
<path style="fill:#9c9c9c; stroke:none;" d="M85 137L86 138L85 137M139 137L140 138L139 137z"/>
<path style="fill:#b8b8b8; stroke:none;" d="M142 137L143 138L142 137z"/>
<path style="fill:#4b4b4b; stroke:none;" d="M154 137L155 138L154 137z"/>
<path style="fill:#c6c6c6; stroke:none;" d="M155 137L156 138L155 137z"/>
<path style="fill:#898989; stroke:none;" d="M67 138L68 139L67 138z"/>
<path style="fill:#6b6b6b; stroke:none;" d="M80 138L81 139L80 138z"/>
<path style="fill:#4e4e4e; stroke:none;" d="M87 138L88 139L87 138M137 138L138 139L137 138z"/>
<path style="fill:#6b6b6b; stroke:none;" d="M144 138L145 139L144 138z"/>
<path style="fill:#969696; stroke:none;" d="M157 138L158 139L157 138z"/>
<path style="fill:#bebebe; stroke:none;" d="M64 139L65 140L64 139z"/>
<path style="fill:#4b4b4b; stroke:none;" d="M65 139L66 140L65 139z"/>
<path style="fill:#373737; stroke:none;" d="M78 139L79 140L78 139z"/>
<path style="fill:#c6c6c6; stroke:none;" d="M88 139L89 140L88 139z"/>
<path style="fill:#303030; stroke:none;" d="M89 139L90 140L89 139M135 139L136 140L135 139z"/>
<path style="fill:#c6c6c6; stroke:none;" d="M136 139L137 140L136 139z"/>
<path style="fill:#d1d1d1; stroke:none;" d="M145 139L146 140L145 139z"/>
<path style="fill:#535353; stroke:none;" d="M159 139L160 140L159 139z"/>
<path style="fill:#c6c6c6; stroke:none;" d="M160 139L161 140L160 139z"/>
<path style="fill:#9c9c9c; stroke:none;" d="M62 140L63 141L62 140z"/>
<path style="fill:#b8b8b8; stroke:none;" d="M77 140L78 141L77 140z"/>
<path style="fill:#c6c6c6; stroke:none;" d="M90 140L91 141L90 140z"/>
<path style="fill:#535353; stroke:none;" d="M91 140L92 141L91 140M133 140L134 141L133 140z"/>
<path style="fill:#c6c6c6; stroke:none;" d="M134 140L135 141L134 140z"/>
<path style="fill:#acacac; stroke:none;" d="M147 140L148 141L147 140z"/>
<path style="fill:#a6a6a6; stroke:none;" d="M162 140L163 141L162 140z"/>
<path style="fill:#898989; stroke:none;" d="M60 141L61 142L60 141z"/>
<path style="fill:#303030; stroke:none;" d="M75 141L76 142L75 141z"/>
<path style="fill:#969696; stroke:none;" d="M93 141L94 142L93 141z"/>
<path style="fill:#2c2c2c; stroke:none;" d="M94 141L95 142L94 141M130 141L131 142L130 141z"/>
<path style="fill:#969696; stroke:none;" d="M131 141L132 142L131 141z"/>
<path style="fill:#8e8e8e; stroke:none;" d="M164 141L165 142L164 141z"/>
<path style="fill:#828282; stroke:none;" d="M58 142L59 143L58 142z"/>
<path style="fill:#d1d1d1; stroke:none;" d="M76 142L77 143L76 142z"/>
<path style="fill:#969696; stroke:none;" d="M96 142L97 143L96 142z"/>
<path style="fill:#303030; stroke:none;" d="M97 142C105.367 145.511 118.924 143 128 143C119.633 139.489 106.076 142 97 142z"/>
<path style="fill:#969696; stroke:none;" d="M128 142L129 143L128 142z"/>
<path style="fill:#8e8e8e; stroke:none;" d="M166 142L167 143L166 142M56 143L57 144L56 143z"/>
<path style="fill:#969696; stroke:none;" d="M168 143L169 144L168 143z"/>
<path style="fill:#acacac; stroke:none;" d="M54 144L55 145L54 144z"/>
<path style="fill:#b8b8b8; stroke:none;" d="M170 144L171 145L170 144z"/>
<path style="fill:#373737; stroke:none;" d="M53 145L54 146L53 145M66 145L67 146L66 145z"/>
<path style="fill:#b8b8b8; stroke:none;" d="M67 145L68 146L67 145z"/>
<path style="fill:#ffffff; stroke:none;" d="M113 194C102.102 182.873 92.4941 170.501 82 159C78.5004 155.164 74.24 147.906 69 146.418C65.2716 145.36 60.0843 149.108 57 150.873C46.342 156.971 35.1059 168.056 45.2137 179.999C56.9553 193.872 76.6142 201.705 93 208.576C98.9199 211.058 106.452 215.154 113 214.856C117.077 214.67 121.198 212.667 125 211.308C134.338 207.97 143.146 203.674 152 199.247C160.808 194.842 169.885 189.899 176.985 182.96C180.716 179.314 184.044 175.479 183.938 170C183.743 159.873 173.032 153.296 165 149.248C162.024 147.748 158.39 145.19 155 146.816C149.276 149.561 144.493 157.281 140.424 162C131.345 172.529 120.848 182.523 113 194z"/>
<path style="fill:#acacac; stroke:none;" d="M69 145L70 146L69 145z"/>
<path style="fill:#464646; stroke:none;" d="M78 145L79 146L78 145z"/>
<path style="fill:#8e8e8e; stroke:none;" d="M98 145C99.2484 145.685 99.5484 145.749 101 146C99.7517 145.315 99.4516 145.251 98 145z"/>
<path style="fill:#d1d1d1; stroke:none;" d="M101 145L102 146L101 145M123 145L124 146L123 145z"/>
<path style="fill:#8e8e8e; stroke:none;" d="M124 145C125.248 145.685 125.548 145.749 127 146C125.752 145.315 125.452 145.251 124 145z"/>
<path style="fill:#4e4e4e; stroke:none;" d="M146 145L147 146L146 145z"/>
<path style="fill:#bebebe; stroke:none;" d="M155 145L156 146L155 145z"/>
<path style="fill:#a6a6a6; stroke:none;" d="M157 145L158 146L157 145z"/>
<path style="fill:#3c3c3c; stroke:none;" d="M171 145L172 146L171 145z"/>
<path style="fill:#767676; stroke:none;" d="M51 146L52 147L51 146z"/>
<path style="fill:#4e4e4e; stroke:none;" d="M64 146L65 147L64 146z"/>
<path style="fill:#cdcdcd; stroke:none;" d="M65 146L66 147L65 146z"/>
<path style="fill:#a6a6a6; stroke:none;" d="M70 146L71 147L70 146z"/>
<path style="fill:#6b6b6b; stroke:none;" d="M79 146L80 147L79 146z"/>
<path style="fill:#656565; stroke:none;" d="M96 146L97 147L96 146z"/>
<path style="fill:#000000; stroke:none;" d="M97.3179 147.032C93.4343 149.553 93.8144 160.693 98.1481 162.637C102.706 164.68 107.542 159.876 112 159.603C117.027 159.294 122.731 165.191 127.682 161.968C131.491 159.489 131.276 148.396 126.852 146.619C121.826 144.599 117.269 149.731 112.424 149.731C107.579 149.731 102.211 143.855 97.3179 147.032z"/>
<path style="fill:#7e7e7e; stroke:none;" d="M103 146L104 147L103 146z"/>
<path style="fill:#828282; stroke:none;" d="M121 146L122 147L121 146z"/>
<path style="fill:#656565; stroke:none;" d="M128 146L129 147L128 146z"/>
<path style="fill:#767676; stroke:none;" d="M145 146L146 147L145 146z"/>
<path style="fill:#b8b8b8; stroke:none;" d="M154 146L155 147L154 146z"/>
<path style="fill:#c6c6c6; stroke:none;" d="M159 146L160 147L159 146z"/>
<path style="fill:#464646; stroke:none;" d="M160 146L161 147L160 146z"/>
<path style="fill:#828282; stroke:none;" d="M173 146L174 147L173 146z"/>
<path style="fill:#c6c6c6; stroke:none;" d="M49 147L50 148L49 147z"/>
<path style="fill:#4b4b4b; stroke:none;" d="M62 147L63 148L62 147z"/>
<path style="fill:#d1d1d1; stroke:none;" d="M63 147L64 148L63 147z"/>
<path style="fill:#969696; stroke:none;" d="M71 147L72 148L71 147z"/>
<path style="fill:#8e8e8e; stroke:none;" d="M80 147L81 148L80 147M95 147L96 148L95 147z"/>
<path style="fill:#464646; stroke:none;" d="M105 147L106 148L105 147z"/>
<path style="fill:#c6c6c6; stroke:none;" d="M106 147L107 148L106 147M118 147L119 148L118 147z"/>
<path style="fill:#464646; stroke:none;" d="M119 147L120 148L119 147z"/>
<path style="fill:#9c9c9c; stroke:none;" d="M129 147L130 148L129 147z"/>
<path style="fill:#969696; stroke:none;" d="M144 147L145 148L144 147z"/>
<path style="fill:#9c9c9c; stroke:none;" d="M153 147L154 148L153 147z"/>
<path style="fill:#cdcdcd; stroke:none;" d="M161 147L162 148L161 147z"/>
<path style="fill:#3c3c3c; stroke:none;" d="M162 147L163 148L162 147z"/>
<path style="fill:#cdcdcd; stroke:none;" d="M175 147L176 148L175 147z"/>
<path style="fill:#767676; stroke:none;" d="M48 148L49 149L48 148z"/>
<path style="fill:#373737; stroke:none;" d="M60 148L61 149L60 148z"/>
<path style="fill:#cdcdcd; stroke:none;" d="M61 148L62 149L61 148z"/>
<path style="fill:#828282; stroke:none;" d="M72 148L73 149L72 148z"/>
<path style="fill:#b8b8b8; stroke:none;" d="M81 148L82 149L81 148z"/>
<path style="fill:#a6a6a6; stroke:none;" d="M108 148L109 149L108 148M116 148L117 149L116 148z"/>
<path style="fill:#b8b8b8; stroke:none;" d="M143 148L144 149L143 148z"/>
<path style="fill:#898989; stroke:none;" d="M152 148L153 149L152 148z"/>
<path style="fill:#cdcdcd; stroke:none;" d="M163 148L164 149L163 148z"/>
<path style="fill:#373737; stroke:none;" d="M164 148L165 149L164 148z"/>
<path style="fill:#7e7e7e; stroke:none;" d="M176 148L177 149L176 148z"/>
<path style="fill:#bebebe; stroke:none;" d="M59 149L60 150L59 149z"/>
<path style="fill:#707070; stroke:none;" d="M73 149L74 150L73 149z"/>
<path style="fill:#cdcdcd; stroke:none;" d="M82 149L83 150L82 149z"/>
<path style="fill:#e2e2e2; stroke:none;" d="M94 149L94 152C94.6961 150.446 94.6961 150.554 94 149z"/>
<path style="fill:#7f7f7f; stroke:none;" d="M110 149L111 150L110 149M114 149L115 150L114 149z"/>
<path style="fill:#d1d1d1; stroke:none;" d="M142 149L143 150L142 149z"/>
<path style="fill:#707070; stroke:none;" d="M151 149L152 150L151 149z"/>
<path style="fill:#bebebe; stroke:none;" d="M165 149L166 150L165 149z"/>
<path style="fill:#b8b8b8; stroke:none;" d="M45 150L46 151L45 150z"/>
<path style="fill:#9c9c9c; stroke:none;" d="M57 150L58 151L57 150z"/>
<path style="fill:#4e4e4e; stroke:none;" d="M74 150L75 151L74 150z"/>
<path style="fill:#3c3c3c; stroke:none;" d="M112 150L113 151L112 150z"/>
<path style="fill:#dddddd; stroke:none;" d="M130 150L130 160C131.346 156.793 131.346 153.207 130 150z"/>
<path style="fill:#4e4e4e; stroke:none;" d="M150 150L151 151L150 150z"/>
<path style="fill:#a6a6a6; stroke:none;" d="M167 150L168 151L167 150z"/>
<path style="fill:#acacac; stroke:none;" d="M179 150L180 151L179 150z"/>
<path style="fill:#7f7f7f; stroke:none;" d="M44 151L45 152L44 151z"/>
<path style="fill:#707070; stroke:none;" d="M55 151L56 152L55 151z"/>
<path style="fill:#3c3c3c; stroke:none;" d="M75 151L76 152L75 151M149 151L150 152L149 151z"/>
<path style="fill:#7e7e7e; stroke:none;" d="M169 151L170 152L169 151z"/>
<path style="fill:#767676; stroke:none;" d="M180 151L181 152L180 151z"/>
<path style="fill:#606060; stroke:none;" d="M43 152L44 153L43 152z"/>
<path style="fill:#d1d1d1; stroke:none;" d="M54 152L55 153L54 152z"/>
<path style="fill:#373737; stroke:none;" d="M84 152L85 153L84 152z"/>
<path style="fill:#d1d1d1; stroke:none;" d="M94 152L94 160C95.1614 157.23 95.1614 154.77 94 152z"/>
<path style="fill:#3c3c3c; stroke:none;" d="M140 152L141 153L140 152z"/>
<path style="fill:#4b4b4b; stroke:none;" d="M181 152L182 153L181 152z"/>
<path style="fill:#3c3c3c; stroke:none;" d="M42 153L43 154L42 153z"/>
<path style="fill:#828282; stroke:none;" d="M52 153L53 154L52 153z"/>
<path style="fill:#585858; stroke:none;" d="M85 153L86 154L85 153M139 153L140 154L139 153z"/>
<path style="fill:#8e8e8e; stroke:none;" d="M172 153L173 154L172 153z"/>
<path style="fill:#2c2c2c; stroke:none;" d="M182 153L183 154L182 153z"/>
<path style="fill:#464646; stroke:none;" d="M41 154L42 155L41 154z"/>
<path style="fill:#cdcdcd; stroke:none;" d="M51 154L52 155L51 154z"/>
<path style="fill:#7e7e7e; stroke:none;" d="M86 154L87 155L86 154z"/>
<path style="fill:#828282; stroke:none;" d="M138 154L139 155L138 154z"/>
<path style="fill:#d1d1d1; stroke:none;" d="M173 154L174 155L173 154z"/>
<path style="fill:#373737; stroke:none;" d="M183 154L184 155L183 154z"/>
<path style="fill:#464646; stroke:none;" d="M40 155L41 156L40 155z"/>
<path style="fill:#3c3c3c; stroke:none;" d="M49 155L50 156L49 155z"/>
<path style="fill:#cdcdcd; stroke:none;" d="M78 155L79 156L78 155z"/>
<path style="fill:#9c9c9c; stroke:none;" d="M87 155L88 156L87 155M137 155L138 156L137 155z"/>
<path style="fill:#c6c6c6; stroke:none;" d="M146 155L147 156L146 155z"/>
<path style="fill:#4e4e4e; stroke:none;" d="M175 155L176 156L175 155M184 155L185 156L184 155z"/>
<path style="fill:#6b6b6b; stroke:none;" d="M39 156L40 157L39 156z"/>
<path style="fill:#707070; stroke:none;" d="M48 156L49 157L48 156z"/>
<path style="fill:#acacac; stroke:none;" d="M79 156L80 157L79 156z"/>
<path style="fill:#bebebe; stroke:none;" d="M88 156L89 157L88 156M136 156L137 157L136 156z"/>
<path style="fill:#acacac; stroke:none;" d="M145 156L146 157L145 156z"/>
<path style="fill:#7e7e7e; stroke:none;" d="M176 156L177 157L176 156z"/>
<path style="fill:#7f7f7f; stroke:none;" d="M185 156L186 157L185 156z"/>
<path style="fill:#a6a6a6; stroke:none;" d="M38 157L39 158L38 157z"/>
<path style="fill:#898989; stroke:none;" d="M47 157L48 158L47 157z"/>
<path style="fill:#969696; stroke:none;" d="M80 157L81 158L80 157z"/>
<path style="fill:#d1d1d1; stroke:none;" d="M89 157L90 158L89 157M135 157L136 158L135 157z"/>
<path style="fill:#8e8e8e; stroke:none;" d="M144 157L145 158L144 157z"/>
<path style="fill:#9c9c9c; stroke:none;" d="M177 157L178 158L177 157z"/>
<path style="fill:#b8b8b8; stroke:none;" d="M186 157L187 158L186 157z"/>
<path style="fill:#9c9c9c; stroke:none;" d="M46 158L47 159L46 158z"/>
<path style="fill:#767676; stroke:none;" d="M81 158L82 159L81 158z"/>
<path style="fill:#707070; stroke:none;" d="M143 158L144 159L143 158z"/>
<path style="fill:#acacac; stroke:none;" d="M178 158L179 159L178 158z"/>
<path style="fill:#464646; stroke:none;" d="M37 159L38 160L37 159z"/>
<path style="fill:#9c9c9c; stroke:none;" d="M45 159L46 160L45 159z"/>
<path style="fill:#585858; stroke:none;" d="M82 159L83 160L82 159z"/>
<path style="fill:#303030; stroke:none;" d="M110 159L111 160L110 159z"/>
<path style="fill:#b8b8b8; stroke:none;" d="M111 159L112 160L111 159M113 159L114 160L113 159z"/>
<path style="fill:#2c2c2c; stroke:none;" d="M114 159L115 160L114 159z"/>
<path style="fill:#535353; stroke:none;" d="M142 159L143 160L142 159z"/>
<path style="fill:#a6a6a6; stroke:none;" d="M179 159L180 160L179 159z"/>
<path style="fill:#4e4e4e; stroke:none;" d="M187 159L188 160L187 159z"/>
<path style="fill:#acacac; stroke:none;" d="M36 160L37 161L36 160z"/>
<path style="fill:#7e7e7e; stroke:none;" d="M44 160L45 161L44 160z"/>
<path style="fill:#373737; stroke:none;" d="M83 160L84 161L83 160z"/>
<path style="fill:#3c3c3c; stroke:none;" d="M91 160L92 161L91 160z"/>
<path style="fill:#656565; stroke:none;" d="M108 160L109 161L108 160z"/>
<path style="fill:#d1d1d1; stroke:none;" d="M109 160L110 161L109 160z"/>
<path style="fill:#cdcdcd; stroke:none;" d="M115 160L116 161L115 160z"/>
<path style="fill:#606060; stroke:none;" d="M116 160L117 161L116 160z"/>
<path style="fill:#3c3c3c; stroke:none;" d="M133 160L134 161L133 160z"/>
<path style="fill:#2c2c2c; stroke:none;" d="M141 160L142 161L141 160z"/>
<path style="fill:#828282; stroke:none;" d="M180 160L181 161L180 160z"/>
<path style="fill:#b8b8b8; stroke:none;" d="M188 160L189 161L188 160z"/>
<path style="fill:#535353; stroke:none;" d="M43 161L44 162L43 161z"/>
<path style="fill:#606060; stroke:none;" d="M92 161L93 162L92 161z"/>
<path style="fill:#707070; stroke:none;" d="M95 161L96 162L95 161z"/>
<path style="fill:#898989; stroke:none;" d="M106 161L107 162L106 161M118 161L119 162L118 161z"/>
<path style="fill:#767676; stroke:none;" d="M129 161L130 162L129 161z"/>
<path style="fill:#606060; stroke:none;" d="M132 161L133 162L132 161z"/>
<path style="fill:#4b4b4b; stroke:none;" d="M181 161L182 162L181 161z"/>
<path style="fill:#9c9c9c; stroke:none;" d="M35 162L36 163L35 162z"/>
<path style="fill:#7f7f7f; stroke:none;" d="M93 162L94 163L93 162z"/>
<path style="fill:#464646; stroke:none;" d="M96 162L97 163L96 162M103 162L104 163L103 162z"/>
<path style="fill:#b8b8b8; stroke:none;" d="M104 162L105 163L104 162M120 162L121 163L120 162z"/>
<path style="fill:#464646; stroke:none;" d="M121 162L122 163L121 162z"/>
<path style="fill:#585858; stroke:none;" d="M128 162L129 163L128 162z"/>
<path style="fill:#7f7f7f; stroke:none;" d="M131 162L132 163L131 162z"/>
<path style="fill:#a6a6a6; stroke:none;" d="M189 162L190 163L189 162z"/>
<path style="fill:#bebebe; stroke:none;" d="M42 163L43 164L42 163z"/>
<path style="fill:#a6a6a6; stroke:none;" d="M94 163L95 164L94 163z"/>
<path style="fill:#c6c6c6; stroke:none;" d="M97 163L98 164L97 163z"/>
<path style="fill:#707070; stroke:none;" d="M98 163L99 164L98 163z"/>
<path style="fill:#4e4e4e; stroke:none;" d="M100 163L101 164L100 163z"/>
<path style="fill:#969696; stroke:none;" d="M101 163L102 164L101 163z"/>
<path style="fill:#a6a6a6; stroke:none;" d="M123 163L124 164L123 163z"/>
<path style="fill:#606060; stroke:none;" d="M124 163C125.248 163.685 125.548 163.749 127 164C125.752 163.315 125.452 163.251 124 163z"/>
<path style="fill:#acacac; stroke:none;" d="M127 163L128 164L127 163z"/>
<path style="fill:#a6a6a6; stroke:none;" d="M130 163L131 164L130 163z"/>
<path style="fill:#d1d1d1; stroke:none;" d="M139 163L140 164L139 163z"/>
<path style="fill:#acacac; stroke:none;" d="M182 163L183 164L182 163z"/>
<path style="fill:#b8b8b8; stroke:none;" d="M34 164L35 165L34 164z"/>
<path style="fill:#464646; stroke:none;" d="M41 164L42 165L41 164z"/>
<path style="fill:#bebebe; stroke:none;" d="M86 164L87 165L86 164M95 164L96 165L95 164M129 164L130 165L129 164z"/>
<path style="fill:#b8b8b8; stroke:none;" d="M138 164L139 165L138 164z"/>
<path style="fill:#bebebe; stroke:none;" d="M190 164L191 165L190 164z"/>
<path style="fill:#707070; stroke:none;" d="M34 165L35 166L34 165z"/>
<path style="fill:#c6c6c6; stroke:none;" d="M41 165L42 166L41 165z"/>
<path style="fill:#a6a6a6; stroke:none;" d="M87 165L88 166L87 165z"/>
<path style="fill:#d1d1d1; stroke:none;" d="M96 165L97 166L96 165M128 165L129 166L128 165z"/>
<path style="fill:#9c9c9c; stroke:none;" d="M137 165L138 166L137 165z"/>
<path style="fill:#acacac; stroke:none;" d="M183 165L184 166L183 165z"/>
<path style="fill:#767676; stroke:none;" d="M190 165L191 166L190 165z"/>
<path style="fill:#2c2c2c; stroke:none;" d="M34 166L35 167L34 166z"/>
<path style="fill:#7e7e7e; stroke:none;" d="M88 166L89 167L88 166z"/>
<path style="fill:#767676; stroke:none;" d="M136 166L137 167L136 166z"/>
<path style="fill:#373737; stroke:none;" d="M190 166L191 167L190 166z"/>
<path style="fill:#6b6b6b; stroke:none;" d="M40 167L41 168L40 167z"/>
<path style="fill:#606060; stroke:none;" d="M89 167L90 168L89 167z"/>
<path style="fill:#535353; stroke:none;" d="M135 167L136 168L135 167M184 167L185 168L184 167z"/>
<path style="fill:#b8b8b8; stroke:none;" d="M40 168L40 172C40.7102 170.241 40.7102 169.759 40 168z"/>
<path style="fill:#303030; stroke:none;" d="M90 168L91 169L90 168z"/>
<path style="fill:#373737; stroke:none;" d="M98 168L99 169L98 168z"/>
<path style="fill:#303030; stroke:none;" d="M126 168L127 169L126 168z"/>
<path style="fill:#2c2c2c; stroke:none;" d="M134 168L135 169L134 168z"/>
<path style="fill:#acacac; stroke:none;" d="M184 168L184 172C184.71 170.241 184.71 169.759 184 168z"/>
<path style="fill:#585858; stroke:none;" d="M99 169L100 170L99 169M125 169L126 170L125 169z"/>
<path style="fill:#7e7e7e; stroke:none;" d="M100 170L101 171L100 170z"/>
<path style="fill:#767676; stroke:none;" d="M124 170L125 171L124 170z"/>
<path style="fill:#d1d1d1; stroke:none;" d="M92 171L93 172L92 171z"/>
<path style="fill:#969696; stroke:none;" d="M101 171L102 172L101 171M123 171L124 172L123 171z"/>
<path style="fill:#d1d1d1; stroke:none;" d="M132 171L133 172L132 171z"/>
<path style="fill:#7e7e7e; stroke:none;" d="M40 172L41 173L40 172z"/>
<path style="fill:#b8b8b8; stroke:none;" d="M93 172L94 173L93 172M102 172L103 173L102 172M122 172L123 173L122 172M131 172L132 173L131 172z"/>
<path style="fill:#7e7e7e; stroke:none;" d="M184 172L185 173L184 172z"/>
<path style="fill:#9c9c9c; stroke:none;" d="M94 173L95 174L94 173z"/>
<path style="fill:#cdcdcd; stroke:none;" d="M103 173L104 174L103 173M121 173L122 174L121 173z"/>
<path style="fill:#969696; stroke:none;" d="M130 173L131 174L130 173z"/>
<path style="fill:#535353; stroke:none;" d="M34 174L35 175L34 174z"/>
<path style="fill:#d1d1d1; stroke:none;" d="M41 174L42 175L41 174z"/>
<path style="fill:#7e7e7e; stroke:none;" d="M95 174L96 175L95 174z"/>
<path style="fill:#767676; stroke:none;" d="M129 174L130 175L129 174z"/>
<path style="fill:#585858; stroke:none;" d="M190 174L191 175L190 174z"/>
<path style="fill:#9c9c9c; stroke:none;" d="M34 175L35 176L34 175z"/>
<path style="fill:#585858; stroke:none;" d="M41 175L42 176L41 175z"/>
<path style="fill:#606060; stroke:none;" d="M96 175L97 176L96 175z"/>
<path style="fill:#535353; stroke:none;" d="M128 175L129 176L128 175z"/>
<path style="fill:#656565; stroke:none;" d="M183 175L184 176L183 175z"/>
<path style="fill:#9c9c9c; stroke:none;" d="M190 175L191 176L190 175z"/>
<path style="fill:#d1d1d1; stroke:none;" d="M42 176L43 177L42 176z"/>
<path style="fill:#3c3c3c; stroke:none;" d="M97 176L98 177L97 176z"/>
<path style="fill:#303030; stroke:none;" d="M127 176L128 177L127 176z"/>
<path style="fill:#d1d1d1; stroke:none;" d="M182 176L183 177L182 176z"/>
<path style="fill:#6b6b6b; stroke:none;" d="M35 177L36 178L35 177z"/>
<path style="fill:#4e4e4e; stroke:none;" d="M106 177L107 178L106 177z"/>
<path style="fill:#464646; stroke:none;" d="M118 177L119 178L118 177z"/>
<path style="fill:#6b6b6b; stroke:none;" d="M189 177L190 178L189 177z"/>
<path style="fill:#767676; stroke:none;" d="M43 178L44 179L43 178z"/>
<path style="fill:#656565; stroke:none;" d="M107 178L108 179L107 178z"/>
<path style="fill:#606060; stroke:none;" d="M117 178L118 179L117 178z"/>
<path style="fill:#707070; stroke:none;" d="M181 178L182 179L181 178z"/>
<path style="fill:#767676; stroke:none;" d="M36 179L37 180L36 179z"/>
<path style="fill:#acacac; stroke:none;" d="M44 179L45 180L44 179z"/>
<path style="fill:#898989; stroke:none;" d="M108 179L109 180L108 179z"/>
<path style="fill:#828282; stroke:none;" d="M116 179L117 180L116 179z"/>
<path style="fill:#d1d1d1; stroke:none;" d="M125 179L126 180L125 179z"/>
<path style="fill:#9c9c9c; stroke:none;" d="M180 179L181 180L180 179z"/>
<path style="fill:#767676; stroke:none;" d="M188 179L189 180L188 179z"/>
<path style="fill:#c6c6c6; stroke:none;" d="M45 180L46 181L45 180M100 180L101 181L100 180z"/>
<path style="fill:#9c9c9c; stroke:none;" d="M109 180L110 181L109 180M115 180L116 181L115 180z"/>
<path style="fill:#b8b8b8; stroke:none;" d="M124 180L125 181L124 180M179 180L180 181L179 180z"/>
<path style="fill:#c6c6c6; stroke:none;" d="M37 181L38 182L37 181z"/>
<path style="fill:#d1d1d1; stroke:none;" d="M46 181L47 182L46 181z"/>
<path style="fill:#a6a6a6; stroke:none;" d="M101 181L102 182L101 181z"/>
<path style="fill:#b8b8b8; stroke:none;" d="M110 181L111 182L110 181M114 181L115 182L114 181z"/>
<path style="fill:#9c9c9c; stroke:none;" d="M123 181L124 182L123 181z"/>
<path style="fill:#bebebe; stroke:none;" d="M178 181L179 182L178 181M187 181L188 182L187 181z"/>
<path style="fill:#828282; stroke:none;" d="M38 182L39 183L38 182z"/>
<path style="fill:#cdcdcd; stroke:none;" d="M47 182L48 183L47 182z"/>
<path style="fill:#898989; stroke:none;" d="M102 182L103 183L102 182z"/>
<path style="fill:#cdcdcd; stroke:none;" d="M111 182L112 183L111 182z"/>
<path style="fill:#c6c6c6; stroke:none;" d="M113 182L114 183L113 182z"/>
<path style="fill:#7e7e7e; stroke:none;" d="M122 182L123 183L122 182z"/>
<path style="fill:#b8b8b8; stroke:none;" d="M177 182L178 183L177 182z"/>
<path style="fill:#7f7f7f; stroke:none;" d="M186 182L187 183L186 182z"/>
<path style="fill:#4e4e4e; stroke:none;" d="M39 183L40 184L39 183z"/>
<path style="fill:#b8b8b8; stroke:none;" d="M48 183L49 184L48 183z"/>
<path style="fill:#656565; stroke:none;" d="M103 183L104 184L103 183z"/>
<path style="fill:#a6a6a6; stroke:none;" d="M112 183L113 184L112 183z"/>
<path style="fill:#606060; stroke:none;" d="M121 183L122 184L121 183z"/>
<path style="fill:#9c9c9c; stroke:none;" d="M176 183L177 184L176 183z"/>
<path style="fill:#4b4b4b; stroke:none;" d="M185 183L186 184L185 183z"/>
<path style="fill:#303030; stroke:none;" d="M40 184L41 185L40 184z"/>
<path style="fill:#969696; stroke:none;" d="M49 184L50 185L49 184z"/>
<path style="fill:#464646; stroke:none;" d="M104 184L105 185L104 184M120 184L121 185L120 184z"/>
<path style="fill:#7e7e7e; stroke:none;" d="M175 184L176 185L175 184z"/>
<path style="fill:#6b6b6b; stroke:none;" d="M50 185L51 186L50 185z"/>
<path style="fill:#535353; stroke:none;" d="M174 185L175 186L174 185z"/>
<path style="fill:#303030; stroke:none;" d="M51 186L52 187L51 186z"/>
<path style="fill:#2c2c2c; stroke:none;" d="M43 187L44 188L43 187z"/>
<path style="fill:#b8b8b8; stroke:none;" d="M53 187L54 188L53 187z"/>
<path style="fill:#a6a6a6; stroke:none;" d="M171 187L172 188L171 187z"/>
<path style="fill:#303030; stroke:none;" d="M181 187L182 188L181 187z"/>
<path style="fill:#464646; stroke:none;" d="M44 188L45 189L44 188z"/>
<path style="fill:#767676; stroke:none;" d="M54 188L55 189L54 188z"/>
<path style="fill:#cdcdcd; stroke:none;" d="M107 188L108 189L107 188z"/>
<path style="fill:#c6c6c6; stroke:none;" d="M117 188L118 189L117 188z"/>
<path style="fill:#606060; stroke:none;" d="M170 188L171 189L170 188z"/>
<path style="fill:#4b4b4b; stroke:none;" d="M180 188L181 189L180 188z"/>
<path style="fill:#6b6b6b; stroke:none;" d="M45 189L46 190L45 189z"/>
<path style="fill:#b8b8b8; stroke:none;" d="M108 189L109 190L108 189M116 189L117 190L116 189z"/>
<path style="fill:#c6c6c6; stroke:none;" d="M168 189L169 190L168 189z"/>
<path style="fill:#767676; stroke:none;" d="M179 189L180 190L179 189z"/>
<path style="fill:#9c9c9c; stroke:none;" d="M46 190L47 191L46 190z"/>
<path style="fill:#8e8e8e; stroke:none;" d="M57 190L58 191L57 190z"/>
<path style="fill:#9c9c9c; stroke:none;" d="M109 190L110 191L109 190z"/>
<path style="fill:#969696; stroke:none;" d="M115 190L116 191L115 190z"/>
<path style="fill:#767676; stroke:none;" d="M167 190L168 191L167 190z"/>
<path style="fill:#9c9c9c; stroke:none;" d="M178 190L179 191L178 190z"/>
<path style="fill:#cdcdcd; stroke:none;" d="M47 191L48 192L47 191z"/>
<path style="fill:#828282; stroke:none;" d="M110 191L111 192L110 191z"/>
<path style="fill:#7e7e7e; stroke:none;" d="M114 191L115 192L114 191z"/>
<path style="fill:#c6c6c6; stroke:none;" d="M165 191L166 192L165 191z"/>
<path style="fill:#d1d1d1; stroke:none;" d="M177 191L178 192L177 191z"/>
<path style="fill:#3c3c3c; stroke:none;" d="M49 192L50 193L49 192z"/>
<path style="fill:#828282; stroke:none;" d="M60 192L61 193L60 192z"/>
<path style="fill:#6b6b6b; stroke:none;" d="M111 192L112 193L111 192z"/>
<path style="fill:#656565; stroke:none;" d="M113 192L114 193L113 192z"/>
<path style="fill:#6b6b6b; stroke:none;" d="M164 192L165 193L164 192z"/>
<path style="fill:#464646; stroke:none;" d="M175 192L176 193L175 192z"/>
<path style="fill:#898989; stroke:none;" d="M50 193L51 194L50 193z"/>
<path style="fill:#bebebe; stroke:none;" d="M62 193L63 194L62 193z"/>
<path style="fill:#898989; stroke:none;" d="M112 193L113 194L112 193z"/>
<path style="fill:#acacac; stroke:none;" d="M162 193L163 194L162 193z"/>
<path style="fill:#969696; stroke:none;" d="M174 193L175 194L174 193z"/>
<path style="fill:#d1d1d1; stroke:none;" d="M51 194L52 195L51 194z"/>
<path style="fill:#535353; stroke:none;" d="M63 194L64 195L63 194z"/>
<path style="fill:#373737; stroke:none;" d="M161 194L162 195L161 194z"/>
<path style="fill:#d1d1d1; stroke:none;" d="M173 194L174 195L173 194z"/>
<path style="fill:#6b6b6b; stroke:none;" d="M53 195L54 196L53 195z"/>
<path style="fill:#7e7e7e; stroke:none;" d="M65 195L66 196L65 195z"/>
<path style="fill:#707070; stroke:none;" d="M159 195L160 196L159 195z"/>
<path style="fill:#767676; stroke:none;" d="M171 195L172 196L171 195z"/>
<path style="fill:#bebebe; stroke:none;" d="M54 196L55 197L54 196z"/>
<path style="fill:#9c9c9c; stroke:none;" d="M67 196L68 197L67 196z"/>
<path style="fill:#969696; stroke:none;" d="M157 196L158 197L157 196z"/>
<path style="fill:#cdcdcd; stroke:none;" d="M170 196L171 197L170 196z"/>
<path style="fill:#707070; stroke:none;" d="M56 197L57 198L56 197z"/>
<path style="fill:#acacac; stroke:none;" d="M69 197L70 198L69 197M155 197L156 198L155 197z"/>
<path style="fill:#7f7f7f; stroke:none;" d="M168 197L169 198L168 197z"/>
<path style="fill:#d1d1d1; stroke:none;" d="M57 198L58 199L57 198z"/>
<path style="fill:#bebebe; stroke:none;" d="M71 198L72 199L71 198z"/>
<path style="fill:#c6c6c6; stroke:none;" d="M153 198L154 199L153 198z"/>
<path style="fill:#373737; stroke:none;" d="M166 198L167 199L166 198z"/>
<path style="fill:#9c9c9c; stroke:none;" d="M59 199L60 200L59 199z"/>
<path style="fill:#3c3c3c; stroke:none;" d="M72 199L73 200L72 199z"/>
<path style="fill:#c6c6c6; stroke:none;" d="M73 199L74 200L73 199z"/>
<path style="fill:#cdcdcd; stroke:none;" d="M151 199L152 200L151 199z"/>
<path style="fill:#464646; stroke:none;" d="M152 199L153 200L152 199z"/>
<path style="fill:#a6a6a6; stroke:none;" d="M165 199L166 200L165 199z"/>
<path style="fill:#656565; stroke:none;" d="M61 200L62 201L61 200z"/>
<path style="fill:#373737; stroke:none;" d="M74 200L75 201L74 200z"/>
<path style="fill:#c6c6c6; stroke:none;" d="M75 200L76 201L75 200z"/>
<path style="fill:#d1d1d1; stroke:none;" d="M149 200L150 201L149 200z"/>
<path style="fill:#4e4e4e; stroke:none;" d="M150 200L151 201L150 200z"/>
<path style="fill:#707070; stroke:none;" d="M163 200L164 201L163 200z"/>
<path style="fill:#d1d1d1; stroke:none;" d="M62 201L63 202L62 201z"/>
<path style="fill:#373737; stroke:none;" d="M63 201L64 202L63 201M76 201L77 202L76 201z"/>
<path style="fill:#c6c6c6; stroke:none;" d="M77 201L78 202L77 201z"/>
<path style="fill:#d1d1d1; stroke:none;" d="M147 201L148 202L147 201z"/>
<path style="fill:#4e4e4e; stroke:none;" d="M148 201L149 202L148 201z"/>
<path style="fill:#464646; stroke:none;" d="M161 201L162 202L161 201z"/>
<path style="fill:#b8b8b8; stroke:none;" d="M64 202L65 203L64 202z"/>
<path style="fill:#303030; stroke:none;" d="M78 202L79 203L78 202z"/>
<path style="fill:#bebebe; stroke:none;" d="M79 202L80 203L79 202z"/>
<path style="fill:#cdcdcd; stroke:none;" d="M145 202L146 203L145 202z"/>
<path style="fill:#464646; stroke:none;" d="M146 202L147 203L146 202z"/>
<path style="fill:#c6c6c6; stroke:none;" d="M160 202L161 203L160 202z"/>
<path style="fill:#9c9c9c; stroke:none;" d="M66 203L67 204L66 203z"/>
<path style="fill:#acacac; stroke:none;" d="M81 203L82 204L81 203z"/>
<path style="fill:#bebebe; stroke:none;" d="M143 203L144 204L143 203z"/>
<path style="fill:#373737; stroke:none;" d="M144 203L145 204L144 203z"/>
<path style="fill:#acacac; stroke:none;" d="M158 203L159 204L158 203z"/>
<path style="fill:#898989; stroke:none;" d="M68 204L69 205L68 204z"/>
<path style="fill:#9c9c9c; stroke:none;" d="M83 204L84 205L83 204z"/>
<path style="fill:#acacac; stroke:none;" d="M141 204L142 205L141 204z"/>
<path style="fill:#9c9c9c; stroke:none;" d="M156 204L157 205L156 204z"/>
<path style="fill:#828282; stroke:none;" d="M70 205L71 206L70 205M85 205L86 206L85 205z"/>
<path style="fill:#969696; stroke:none;" d="M139 205L140 206L139 205z"/>
<path style="fill:#8e8e8e; stroke:none;" d="M154 205L155 206L154 205z"/>
<path style="fill:#7e7e7e; stroke:none;" d="M72 206L73 207L72 206z"/>
<path style="fill:#606060; stroke:none;" d="M87 206L88 207L87 206z"/>
<path style="fill:#d1d1d1; stroke:none;" d="M88 206L89 207L88 206z"/>
<path style="fill:#707070; stroke:none;" d="M137 206L138 207L137 206z"/>
<path style="fill:#898989; stroke:none;" d="M152 206L153 207L152 206z"/>
<path style="fill:#828282; stroke:none;" d="M74 207L75 208L74 207z"/>
<path style="fill:#303030; stroke:none;" d="M89 207L90 208L89 207z"/>
<path style="fill:#b8b8b8; stroke:none;" d="M90 207L91 208L90 207M134 207L135 208L134 207z"/>
<path style="fill:#373737; stroke:none;" d="M135 207L136 208L135 207z"/>
<path style="fill:#8e8e8e; stroke:none;" d="M150 207L151 208L150 207z"/>
<path style="fill:#898989; stroke:none;" d="M76 208L77 209L76 208z"/>
<path style="fill:#8e8e8e; stroke:none;" d="M92 208L93 209L92 208M132 208L133 209L132 208z"/>
<path style="fill:#9c9c9c; stroke:none;" d="M148 208L149 209L148 208M78 209L79 210L78 209z"/>
<path style="fill:#585858; stroke:none;" d="M94 209L95 210L94 209z"/>
<path style="fill:#c6c6c6; stroke:none;" d="M95 209L96 210L95 209z"/>
<path style="fill:#bebebe; stroke:none;" d="M129 209L130 210L129 209z"/>
<path style="fill:#535353; stroke:none;" d="M130 209L131 210L130 209z"/>
<path style="fill:#a6a6a6; stroke:none;" d="M146 209L147 210L146 209z"/>
<path style="fill:#acacac; stroke:none;" d="M80 210L81 211L80 210z"/>
<path style="fill:#969696; stroke:none;" d="M97 210L98 211L97 210z"/>
<path style="fill:#898989; stroke:none;" d="M127 210L128 211L127 210z"/>
<path style="fill:#373737; stroke:none;" d="M143 210L144 211L143 210z"/>
<path style="fill:#bebebe; stroke:none;" d="M144 210L145 211L144 210z"/>
<path style="fill:#cdcdcd; stroke:none;" d="M82 211L83 212L82 211z"/>
<path style="fill:#535353; stroke:none;" d="M83 211L84 212L83 211z"/>
<path style="fill:#585858; stroke:none;" d="M99 211L100 212L99 211z"/>
<path style="fill:#bebebe; stroke:none;" d="M100 211L101 212L100 211z"/>
<path style="fill:#acacac; stroke:none;" d="M124 211L125 212L124 211z"/>
<path style="fill:#464646; stroke:none;" d="M125 211L126 212L125 211z"/>
<path style="fill:#606060; stroke:none;" d="M141 211L142 212L141 211z"/>
<path style="fill:#d1d1d1; stroke:none;" d="M142 211L143 212L142 211z"/>
<path style="fill:#767676; stroke:none;" d="M85 212L86 213L85 212M102 212L103 213L102 212z"/>
<path style="fill:#d1d1d1; stroke:none;" d="M103 212L104 213L103 212z"/>
<path style="fill:#c6c6c6; stroke:none;" d="M121 212L122 213L121 212z"/>
<path style="fill:#606060; stroke:none;" d="M122 212L123 213L122 212z"/>
<path style="fill:#828282; stroke:none;" d="M139 212L140 213L139 212z"/>
<path style="fill:#a6a6a6; stroke:none;" d="M87 213L88 214L87 213z"/>
<path style="fill:#8e8e8e; stroke:none;" d="M105 213L106 214L105 213z"/>
<path style="fill:#cdcdcd; stroke:none;" d="M118 213L119 214L118 213z"/>
<path style="fill:#767676; stroke:none;" d="M119 213L120 214L119 213z"/>
<path style="fill:#acacac; stroke:none;" d="M137 213L138 214L137 213z"/>
<path style="fill:#cdcdcd; stroke:none;" d="M89 214L90 215L89 214z"/>
<path style="fill:#606060; stroke:none;" d="M90 214L91 215L90 214z"/>
<path style="fill:#8e8e8e; stroke:none;" d="M108 214L109 215L108 214z"/>
<path style="fill:#898989; stroke:none;" d="M116 214L117 215L116 214z"/>
<path style="fill:#656565; stroke:none;" d="M134 214L135 215L134 214z"/>
<path style="fill:#d1d1d1; stroke:none;" d="M135 214L136 215L135 214z"/>
<path style="fill:#969696; stroke:none;" d="M92 215L93 216L92 215z"/>
<path style="fill:#898989; stroke:none;" d="M111 215L112 216L111 215z"/>
<path style="fill:#d1d1d1; stroke:none;" d="M112 215L113 216L112 215z"/>
<path style="fill:#8e8e8e; stroke:none;" d="M113 215L114 216L113 215z"/>
<path style="fill:#9c9c9c; stroke:none;" d="M132 215L133 216L132 215z"/>
<path style="fill:#c6c6c6; stroke:none;" d="M94 216L95 217L94 216z"/>
<path style="fill:#656565; stroke:none;" d="M95 216L96 217L95 216z"/>
<path style="fill:#6b6b6b; stroke:none;" d="M129 216L130 217L129 216z"/>
<path style="fill:#cdcdcd; stroke:none;" d="M130 216L131 217L130 216z"/>
<path style="fill:#a6a6a6; stroke:none;" d="M97 217L98 218L97 217z"/>
<path style="fill:#303030; stroke:none;" d="M98 217L99 218L98 217z"/>
<path style="fill:#373737; stroke:none;" d="M126 217L127 218L126 217z"/>
<path style="fill:#acacac; stroke:none;" d="M127 217L128 218L127 217z"/>
<path style="fill:#898989; stroke:none;" d="M100 218L101 219L100 218z"/>
<path style="fill:#8e8e8e; stroke:none;" d="M124 218L125 219L124 218z"/>
<path style="fill:#cdcdcd; stroke:none;" d="M102 219L103 220L102 219z"/>
<path style="fill:#6b6b6b; stroke:none;" d="M103 219L104 220L103 219z"/>
<path style="fill:#767676; stroke:none;" d="M121 219L122 220L121 219z"/>
<path style="fill:#cdcdcd; stroke:none;" d="M122 219L123 220L122 219z"/>
<path style="fill:#b8b8b8; stroke:none;" d="M105 220L106 221L105 220z"/>
<path style="fill:#535353; stroke:none;" d="M106 220L107 221L106 220z"/>
<path style="fill:#606060; stroke:none;" d="M118 220L119 221L118 220z"/>
<path style="fill:#bebebe; stroke:none;" d="M119 220L120 221L119 220z"/>
<path style="fill:#acacac; stroke:none;" d="M108 221L109 222L108 221z"/>
<path style="fill:#4e4e4e; stroke:none;" d="M109 221L110 222L109 221z"/>
<path style="fill:#585858; stroke:none;" d="M115 221L116 222L115 221z"/>
<path style="fill:#b8b8b8; stroke:none;" d="M116 221L117 222L116 221M111 222L112 223L111 222z"/>
<path style="fill:#656565; stroke:none;" d="M112 222L113 223L112 222z"/>
<path style="fill:#acacac; stroke:none;" d="M113 222L114 223L113 222z"/>
</svg>
